<?xml version="1.0" encoding="UTF-8" standalone="no"?>
<!-- Created with Inkscape (http://www.inkscape.org/) -->

<svg
   xmlns:dc="http://purl.org/dc/elements/1.1/"
   xmlns:cc="http://creativecommons.org/ns#"
   xmlns:rdf="http://www.w3.org/1999/02/22-rdf-syntax-ns#"
   xmlns:svg="http://www.w3.org/2000/svg"
   xmlns="http://www.w3.org/2000/svg"
   xmlns:sodipodi="http://sodipodi.sourceforge.net/DTD/sodipodi-0.dtd"
   xmlns:inkscape="http://www.inkscape.org/namespaces/inkscape"
   version="1.1"
   id="svg2"
   xml:space="preserve"
   width="1604.0533"
   height="732.20398"
   viewBox="0 0 1604.0533 732.20398"
   sodipodi:docname="final.ai.svg"
   inkscape:version="0.92.1 r15371"><metadata
     id="metadata8"><rdf:RDF><cc:Work
         rdf:about=""><dc:format>image/svg+xml</dc:format><dc:type
           rdf:resource="http://purl.org/dc/dcmitype/StillImage" /><dc:title></dc:title></cc:Work></rdf:RDF></metadata><defs
     id="defs6"><clipPath
       clipPathUnits="userSpaceOnUse"
       id="clipPath18"><path
         d="M 0,549.153 H 1203.042 V 0 H 0 Z"
         id="path16"
         inkscape:connector-curvature="0" /></clipPath><clipPath
       clipPathUnits="userSpaceOnUse"
       id="clipPath174"><path
         d="M 0,549.153 H 1203.042 V 0 H 0 Z"
         id="path172"
         inkscape:connector-curvature="0" /></clipPath></defs><sodipodi:namedview
     pagecolor="#ffffff"
     bordercolor="#666666"
     borderopacity="1"
     objecttolerance="10"
     gridtolerance="10"
     guidetolerance="10"
     inkscape:pageopacity="0"
     inkscape:pageshadow="2"
     inkscape:window-width="1920"
     inkscape:window-height="1016"
     id="namedview4"
     showgrid="false"
     inkscape:zoom="0.54309637"
     inkscape:cx="886.84849"
     inkscape:cy="264.02973"
     inkscape:window-x="0"
     inkscape:window-y="27"
     inkscape:window-maximized="1"
     inkscape:current-layer="g10" /><g
     id="g10"
     inkscape:groupmode="layer"
     inkscape:label="final"
     transform="matrix(1.3333333,0,0,-1.3333333,0,732.204)"><g
       id="g12"><g
         id="g14"
         clip-path="url(#clipPath18)"><g
           id="g20"
           transform="translate(197.5946,337.7814)"><path
             d="m 0,0 c -0.139,0 -0.279,0.03 -0.411,0.094 -0.471,0.227 -0.669,0.794 -0.442,1.265 3.592,7.441 7.571,20.547 7.864,21.52 3.74,22.315 27.95,22.362 28.181,22.384 8.647,-0.244 18.115,2.575 23,4.278 0.492,0.173 1.034,-0.088 1.206,-0.583 C 59.571,48.464 59.31,47.924 58.816,47.752 53.807,46.007 44.07,43.112 35.158,43.369 34.213,43.402 12.309,43.274 8.871,22.509 8.864,22.47 8.855,22.431 8.844,22.393 8.673,21.824 4.632,8.362 0.854,0.535 0.69,0.197 0.352,0 0,0"
             style="fill:#061833;fill-opacity:1;fill-rule:nonzero;stroke:none"
             id="path22"
             inkscape:connector-curvature="0" /></g><g
           id="g24"
           transform="translate(197.5946,306.419)"><path
             d="M 0,0 C -0.119,0 -0.242,0.023 -0.359,0.071 -0.843,0.27 -1.075,0.823 -0.876,1.307 l 16.239,39.547 c 9.478,27.149 32.755,27.65 32.989,27.652 17.757,-0.462 35.07,9.309 39.958,12.31 0.446,0.275 1.029,0.134 1.303,-0.311 0.273,-0.446 0.134,-1.03 -0.312,-1.303 -5,-3.07 -22.704,-13.065 -40.965,-12.59 -0.869,-0.01 -22.159,-0.531 -31.202,-26.43 L 0.877,0.587 C 0.726,0.221 0.373,0 0,0"
             style="fill:#061833;fill-opacity:1;fill-rule:nonzero;stroke:none"
             id="path26"
             inkscape:connector-curvature="0" /></g><g
           id="g28"
           transform="translate(197.5946,281.3999)"><path
             d="M 0,0 C -0.137,0 -0.275,0.03 -0.407,0.092 -0.88,0.318 -1.08,0.883 -0.854,1.355 6.25,16.253 19.328,49.97 22.205,57.693 c 0.452,1.223 0.831,2.158 1.227,3.027 10.686,23.209 29.777,24.42 35.384,24.241 2.171,-0.061 4.481,-0.097 6.697,0.198 22.659,3.048 37.696,16.493 41.765,20.54 0.37,0.37 0.97,0.368 1.339,-0.003 0.369,-0.371 0.368,-0.97 -0.003,-1.339 C 104.439,100.203 89.011,86.408 65.764,83.281 63.408,82.967 61.011,83.003 58.758,83.068 53.452,83.229 35.351,82.075 25.154,59.932 24.78,59.109 24.417,58.215 23.981,57.033 21.097,49.292 7.987,15.494 0.855,0.54 0.693,0.199 0.354,0 0,0"
             style="fill:#061833;fill-opacity:1;fill-rule:nonzero;stroke:none"
             id="path30"
             inkscape:connector-curvature="0" /></g><g
           id="g32"
           transform="translate(197.5941,257.6806)"><path
             d="m 0,0 c -0.156,0 -0.314,0.038 -0.46,0.119 -0.457,0.255 -0.621,0.833 -0.367,1.289 5.179,9.297 12.75,27.031 15.328,34.45 0.763,2.199 1.438,4.445 2.011,6.377 3.632,12.211 13.757,31.894 13.859,32.092 12.326,24.642 35.439,28.093 44.804,28.432 10.366,0.363 20.146,3.339 28.284,8.607 8.807,5.709 16.303,13.728 19.987,18 0.341,0.396 0.94,0.441 1.336,0.099 0.397,-0.342 0.441,-0.94 0.099,-1.336 -3.75,-4.349 -11.387,-12.516 -20.392,-18.354 C 96.063,104.322 85.95,101.241 75.242,100.866 64.031,100.459 43.51,96.36 32.06,73.468 31.953,73.262 21.909,53.735 18.328,41.696 17.749,39.745 17.067,37.474 16.291,35.237 13.721,27.84 6.243,10.207 0.829,0.486 0.655,0.176 0.333,0 0,0"
             style="fill:#061833;fill-opacity:1;fill-rule:nonzero;stroke:none"
             id="path34"
             inkscape:connector-curvature="0" /></g><g
           id="g36"
           transform="translate(197.5962,355.3086)"><path
             d="m 0,0 c -0.043,0 -0.087,0.003 -0.131,0.009 -0.518,0.071 -0.88,0.55 -0.808,1.068 2.645,19.15 11.937,27.546 17.239,30.846 0.446,0.277 1.029,0.14 1.305,-0.303 0.276,-0.444 0.14,-1.028 -0.304,-1.305 C 12.28,27.19 3.477,19.202 0.937,0.818 0.872,0.344 0.466,0 0,0"
             style="fill:#061833;fill-opacity:1;fill-rule:nonzero;stroke:none"
             id="path38"
             inkscape:connector-curvature="0" /></g><g
           id="g40"
           transform="translate(197.5951,238.2045)"><path
             d="m 0,0 c -0.242,0 -0.484,0.092 -0.669,0.277 -0.37,0.369 -0.371,0.968 -0.002,1.339 10.821,10.853 20.244,39.968 20.338,40.261 5.907,24.983 18.669,43.638 18.798,43.824 22.227,31.173 58.068,31.533 58.427,31.533 9.5,0.65 31.135,24.364 37.538,31.616 0.347,0.393 0.945,0.429 1.337,0.083 0.392,-0.346 0.429,-0.944 0.083,-1.337 -8.361,-9.47 -28.889,-31.572 -38.893,-32.254 C 96.543,115.339 61.653,114.958 40.015,84.613 39.897,84.441 27.332,66.062 21.491,41.37 21.082,40.085 11.811,11.452 0.671,0.278 0.486,0.093 0.243,0 0,0"
             style="fill:#061833;fill-opacity:1;fill-rule:nonzero;stroke:none"
             id="path42"
             inkscape:connector-curvature="0" /></g><g
           id="g44"
           transform="translate(197.5951,222.7447)"><path
             d="m 0,0 c -0.241,0 -0.482,0.091 -0.667,0.275 -0.371,0.368 -0.374,0.967 -0.006,1.339 2.157,2.176 5.112,5.302 6.942,7.834 9.956,13.796 17.18,29.16 21.471,45.662 0.046,0.191 0.079,0.322 0.119,0.452 2.869,11.096 7.245,21.417 12.996,30.633 20.769,33.251 47.05,35.383 47.313,35.4 34.056,4.493 55.063,36.26 58.928,42.582 0.273,0.446 0.855,0.587 1.302,0.314 0.447,-0.272 0.587,-0.855 0.314,-1.302 -5.539,-9.063 -26.265,-38.982 -60.357,-43.478 C 88.042,119.687 62.686,117.569 42.462,85.191 36.813,76.139 32.513,65.997 29.681,55.046 29.641,54.91 29.618,54.816 29.596,54.727 25.223,37.902 17.899,22.327 7.805,8.339 5.904,5.708 2.877,2.505 0.673,0.28 0.487,0.094 0.244,0 0,0"
             style="fill:#061833;fill-opacity:1;fill-rule:nonzero;stroke:none"
             id="path46"
             inkscape:connector-curvature="0" /></g><g
           id="g48"
           transform="translate(309.4115,341.1128)"><path
             d="m 0,0 c -5.551,0 -12.229,-1.63 -19.962,-4.88 -15.787,-6.635 -29.864,-17.609 -40.707,-31.734 -0.74,-0.965 -1.457,-1.909 -2.14,-2.815 -6.143,-8.141 -10.783,-16.974 -13.79,-26.255 -3.374,-10.409 -3.312,-16.468 -2.975,-19.152 0.089,-0.712 0.593,-1.277 1.227,-1.378 1.659,-0.259 4.112,0.566 6.912,2.333 2.212,1.395 4.059,2.477 5.814,3.403 2.925,1.545 6.861,3.571 11.699,6.022 3.089,1.563 5.928,2.73 8.678,3.567 4.528,1.379 9.192,3.489 13.86,6.271 7.391,4.404 14.15,10.25 20.089,17.376 C 8.701,-23.25 10.041,-9.146 9.69,-4.196 9.594,-2.849 8.698,-1.673 7.408,-1.201 5.222,-0.4 2.749,0 0,0 m -77.714,-88.156 c -0.315,0 -0.626,0.022 -0.929,0.071 -1.462,0.232 -2.618,1.47 -2.811,3.013 -0.357,2.841 -0.435,9.214 3.052,19.973 3.073,9.481 7.811,18.501 14.08,26.811 0.686,0.91 1.407,1.858 2.151,2.827 11.043,14.386 25.384,25.565 41.475,32.328 l 0.367,-0.873 -0.367,0.873 C -8.679,1.918 0.996,3.166 8.06,0.578 c 1.989,-0.728 3.37,-2.549 3.519,-4.639 0.458,-6.434 -1.717,-20.756 -21.418,-44.394 -6.077,-7.291 -12.999,-13.277 -20.575,-17.791 -4.8,-2.86 -9.604,-5.031 -14.278,-6.455 -2.645,-0.805 -5.384,-1.932 -8.374,-3.445 -4.828,-2.446 -8.755,-4.467 -11.67,-6.007 -1.711,-0.903 -3.519,-1.961 -5.689,-3.331 -2.002,-1.264 -4.794,-2.672 -7.289,-2.672"
             style="fill:#061833;fill-opacity:1;fill-rule:nonzero;stroke:none"
             id="path50"
             inkscape:connector-curvature="0" /></g><g
           id="g52"
           transform="translate(294.2642,328.2485)"><path
             d="m 0,0 c -4.023,0 -7.645,-0.789 -7.691,-0.8 -0.013,-0.002 -0.027,-0.005 -0.04,-0.007 -8.022,-1.424 -26.805,-18.671 -26.994,-18.845 -8.643,-7.094 -13.266,-21.143 -14.478,-25.281 -0.347,-1.188 -0.568,-2.183 -0.693,-3.13 -0.367,-2.782 0.031,-4.566 1.182,-5.304 2.422,-1.553 7.942,1.252 9.864,2.464 4.515,3.148 17.442,6.6 17.99,6.746 7.658,2.277 14.732,9.871 17.417,13.029 0.706,0.832 1.41,1.656 2.147,2.462 C 9.432,-16.927 9.793,-9.245 9.449,-6.488 9.047,-3.257 6.593,-0.683 3.481,-0.231 2.338,-0.065 1.152,0 0,0 m -46.862,-55.71 c -1.049,0 -2.038,0.213 -2.872,0.747 -1.826,1.168 -2.512,3.573 -2.04,7.148 0.138,1.045 0.377,2.13 0.753,3.414 1.251,4.27 6.032,18.776 15.053,26.178 0.746,0.69 19.314,17.736 27.887,19.278 0.461,0.1 6.459,1.369 11.835,0.588 3.953,-0.574 7.068,-3.822 7.575,-7.898 0.467,-3.748 -0.371,-11.811 -11.226,-23.689 -0.721,-0.789 -1.411,-1.596 -2.103,-2.41 -2.794,-3.288 -10.175,-11.198 -18.347,-13.627 -0.158,-0.042 -13.179,-3.519 -17.455,-6.5 -0.664,-0.42 -5.249,-3.229 -9.06,-3.229"
             style="fill:#061833;fill-opacity:1;fill-rule:nonzero;stroke:none"
             id="path54"
             inkscape:connector-curvature="0" /></g><g
           id="g56"
           transform="translate(286.0348,318.2816)"><path
             d="m 0,0 c -1.869,0 -3.754,-0.352 -5.56,-1.055 -12.318,-4.794 -21.749,-21.599 -23.515,-24.918 v -0.001 c -0.395,-0.743 -0.609,-1.457 -0.636,-2.122 -0.025,-0.619 0.097,-1.046 0.363,-1.269 0.413,-0.347 1.212,-0.27 1.46,-0.216 0.107,0.024 0.225,0.03 0.334,0.015 3.091,-0.395 14.946,4.494 19.245,6.421 0.048,0.021 0.098,0.039 0.149,0.052 3.486,0.907 9.587,6.736 16.323,15.594 0.649,0.854 0.915,1.952 0.729,3.01 C 8.705,-3.426 8.104,-2.521 7.201,-1.941 6.629,-1.572 5.947,-1.236 5.173,-0.943 3.517,-0.314 1.766,0 0,0 m -28.401,-31.525 c -0.632,0 -1.468,0.132 -2.151,0.696 -0.514,0.427 -1.115,1.26 -1.053,2.81 0.04,0.952 0.328,1.939 0.858,2.935 2.557,4.81 11.884,20.885 24.5,25.795 3.95,1.537 8.244,1.578 12.092,0.117 0.898,-0.34 1.699,-0.736 2.382,-1.175 1.332,-0.858 2.255,-2.247 2.531,-3.813 0.278,-1.577 -0.119,-3.212 -1.087,-4.486 -4.145,-5.452 -11.883,-14.786 -17.275,-16.259 -1.909,-0.854 -15.679,-6.943 -20.035,-6.557 -0.169,-0.029 -0.439,-0.063 -0.762,-0.063"
             style="fill:#061833;fill-opacity:1;fill-rule:nonzero;stroke:none"
             id="path58"
             inkscape:connector-curvature="0" /></g><g
           id="g60"
           transform="translate(282.269,309.8476)"><path
             d="m 0,0 c -0.657,0 -1.332,-0.116 -1.991,-0.349 -7.401,-2.611 -9.601,-8.327 -9.622,-8.384 -0.858,-2.061 -0.56,-2.738 -0.448,-2.896 0.23,-0.328 0.881,-0.348 1.249,-0.33 0.864,0.041 1.77,0.352 2.622,0.897 l 8.841,5.652 c 0.972,0.621 1.719,1.421 2.161,2.314 0.365,0.739 0.461,1.334 0.282,1.767 C 2.87,-0.784 2.188,-0.451 1.655,-0.269 1.134,-0.089 0.575,0 0,0 m -10.996,-13.858 c -1.493,0 -2.245,0.611 -2.616,1.14 -0.723,1.031 -0.646,2.561 0.237,4.679 0.086,0.234 2.525,6.574 10.754,9.477 1.638,0.577 3.375,0.608 4.892,0.085 C 3.584,1.072 4.451,0.354 4.847,-0.609 5.241,-1.568 5.128,-2.687 4.51,-3.937 3.915,-5.138 2.934,-6.2 1.671,-7.007 l -8.841,-5.652 c -1.129,-0.722 -2.358,-1.135 -3.551,-1.192 -0.094,-0.004 -0.186,-0.007 -0.275,-0.007"
             style="fill:#061833;fill-opacity:1;fill-rule:nonzero;stroke:none"
             id="path62"
             inkscape:connector-curvature="0" /></g><g
           id="g64"
           transform="translate(403.4386,153.4482)"><path
             d="m 0,0 c -0.162,0 -0.327,0.041 -0.477,0.13 -0.452,0.264 -0.603,0.845 -0.34,1.296 1.728,2.951 4.749,5.738 5.338,6.266 0.899,0.795 1.956,1.525 3.237,2.235 0.417,0.23 0.852,0.511 1.297,0.8 7.835,5.256 13.978,14.361 15.64,23.188 l 0.203,1.186 c 0.088,0.516 0.57,0.864 1.094,0.774 0.515,-0.088 0.861,-0.579 0.773,-1.093 l -0.207,-1.21 C 24.806,24.263 18.345,14.678 10.099,9.146 9.601,8.823 9.126,8.518 8.674,8.27 7.517,7.627 6.57,6.976 5.781,6.279 4.264,4.914 2.048,2.569 0.819,0.468 0.642,0.168 0.326,0 0,0"
             style="fill:#061833;fill-opacity:1;fill-rule:nonzero;stroke:none"
             id="path66"
             inkscape:connector-curvature="0" /></g><g
           id="g68"
           transform="translate(417.0794,153.4482)"><path
             d="m 0,0 c -0.177,0 -0.355,0.05 -0.515,0.153 -0.439,0.285 -0.563,0.871 -0.278,1.31 3.762,5.794 9.936,10.738 12.416,12.595 0.419,0.314 1.012,0.228 1.326,-0.19 0.314,-0.419 0.228,-1.013 -0.19,-1.326 C 10.36,10.746 4.392,5.969 0.796,0.431 0.614,0.152 0.31,0 0,0"
             style="fill:#061833;fill-opacity:1;fill-rule:nonzero;stroke:none"
             id="path70"
             inkscape:connector-curvature="0" /></g><g
           id="g72"
           transform="translate(387.8398,153.4482)"><path
             d="m 0,0 c -0.264,0 -0.526,0.109 -0.713,0.324 -0.345,0.393 -0.305,0.991 0.088,1.336 l 18.848,16.509 c 0.497,0.41 0.996,0.777 1.493,1.142 l 0.482,0.356 c 2.289,1.703 4.296,3.932 5.964,6.625 2.473,3.979 3.959,8.795 4.299,13.929 0.819,12.564 6.654,34.135 10.06,45.877 0.144,0.501 0.668,0.791 1.173,0.646 0.503,-0.146 0.792,-0.671 0.646,-1.175 C 38.956,73.903 33.159,52.483 32.351,40.097 31.991,34.654 30.408,29.535 27.772,25.293 25.978,22.397 23.81,19.993 21.329,18.147 L 20.837,17.785 C 20.369,17.44 19.897,17.095 19.45,16.726 L 0.624,0.235 C 0.444,0.077 0.221,0 0,0"
             style="fill:#061833;fill-opacity:1;fill-rule:nonzero;stroke:none"
             id="path74"
             inkscape:connector-curvature="0" /></g><g
           id="g76"
           transform="translate(372.877,153.4482)"><path
             d="m 0,0 c -0.165,0 -0.332,0.043 -0.485,0.134 -0.449,0.268 -0.595,0.849 -0.327,1.299 5.252,8.796 21.084,17.944 21.755,18.329 0.662,0.378 1.425,0.824 2.11,1.341 17.101,12.712 18.664,42.733 18.678,43.035 1.975,25.297 9.516,41.975 13.836,49.669 0.257,0.454 0.835,0.616 1.29,0.361 0.456,-0.256 0.618,-0.833 0.362,-1.29 C 52.976,105.321 45.566,88.925 43.621,64.021 43.566,62.784 42.012,32.835 24.188,19.587 23.42,19.008 22.596,18.525 21.885,18.118 16.347,14.942 4.816,7.163 0.815,0.462 0.637,0.165 0.322,0 0,0"
             style="fill:#061833;fill-opacity:1;fill-rule:nonzero;stroke:none"
             id="path78"
             inkscape:connector-curvature="0" /></g><g
           id="g80"
           transform="translate(363.8066,153.4482)"><path
             d="m 0,0 c -0.066,0 -0.133,0.006 -0.2,0.021 -0.511,0.11 -0.837,0.613 -0.727,1.125 2.826,13.168 15.686,22.435 18.717,24.024 0.85,0.437 1.597,0.858 2.29,1.287 17.904,11.069 21.424,29.848 22.106,37.41 0.408,4.617 0.835,8.141 1.385,11.427 4.766,28.853 16.331,50.281 21.082,58.154 0.27,0.448 0.852,0.593 1.3,0.322 0.448,-0.271 0.592,-0.853 0.322,-1.301 C 61.58,124.69 50.153,103.515 45.439,74.983 44.898,71.746 44.477,68.267 44.073,63.698 43.365,55.852 39.707,36.364 21.077,24.847 20.343,24.391 19.552,23.946 18.664,23.488 15.794,21.985 3.599,13.202 0.925,0.749 0.83,0.304 0.437,0 0,0"
             style="fill:#061833;fill-opacity:1;fill-rule:nonzero;stroke:none"
             id="path82"
             inkscape:connector-curvature="0" /></g><g
           id="g84"
           transform="translate(352.5805,153.4482)"><path
             d="m 0,0 c -0.034,0 -0.068,0.002 -0.103,0.005 -0.52,0.056 -0.896,0.524 -0.84,1.044 2.077,19.23 19.377,28.344 19.551,28.434 0.057,0.028 0.117,0.053 0.179,0.069 18.972,5.294 22.198,17.018 22.735,20.484 l 0.081,0.505 c 0.272,1.705 0.553,3.466 0.913,5.204 2.322,11.276 7.04,29.659 10.588,43.095 4.772,18.081 12.272,35.164 22.291,50.772 0.095,0.164 0.278,0.439 0.507,0.783 0.29,0.435 0.878,0.552 1.314,0.262 0.435,-0.291 0.552,-0.879 0.261,-1.314 -0.204,-0.306 -0.367,-0.55 -0.469,-0.724 C 67.077,133.147 59.658,116.247 54.936,98.355 51.394,84.943 46.685,66.598 44.371,55.362 44.02,53.666 43.742,51.925 43.473,50.243 l -0.08,-0.502 C 42.814,46.003 39.372,33.368 19.397,27.756 18.153,27.079 2.835,18.389 0.941,0.846 0.888,0.361 0.478,0 0,0"
             style="fill:#061833;fill-opacity:1;fill-rule:nonzero;stroke:none"
             id="path86"
             inkscape:connector-curvature="0" /></g><g
           id="g88"
           transform="translate(345.3702,153.4482)"><path
             d="m 0,0 c -0.068,0 -0.136,0.007 -0.205,0.022 -0.511,0.113 -0.834,0.619 -0.721,1.129 3.39,15.357 8.971,25.818 13.063,30.485 2.363,2.69 5.401,4.962 9.03,6.753 14.82,7.315 20.708,25.528 22.898,35.735 2.565,12.011 5.439,22.746 8.785,32.816 3.341,10.064 6.708,19.273 8.944,25.226 1.811,4.818 3.827,9.654 5.991,14.374 l 15.254,33.182 c 0.219,0.476 0.783,0.684 1.256,0.465 0.476,-0.218 0.684,-0.781 0.466,-1.257 L 69.507,145.75 C 67.361,141.07 65.363,136.276 63.568,131.5 61.337,125.562 57.98,116.378 54.649,106.343 51.324,96.339 48.468,85.671 45.918,73.727 43.655,63.186 37.54,44.358 22.005,36.69 18.6,35.009 15.759,32.889 13.561,30.387 9.624,25.896 4.237,15.75 0.924,0.743 0.826,0.301 0.435,0 0,0"
             style="fill:#061833;fill-opacity:1;fill-rule:nonzero;stroke:none"
             id="path90"
             inkscape:connector-curvature="0" /></g><g
           id="g92"
           transform="translate(335.2135,153.4482)"><path
             d="M 0,0 C -0.156,0 -0.316,0.039 -0.462,0.121 -0.919,0.376 -1.081,0.955 -0.825,1.41 6.127,13.81 5.429,23.521 5.05,26.201 4.944,26.927 4.322,27.467 3.661,27.444 -4.529,27.097 -24.28,6.58 -30.139,0.301 -30.496,-0.081 -31.095,-0.103 -31.477,0.255 -31.86,0.611 -31.88,1.211 -31.524,1.593 -23.856,9.812 -5.085,28.969 3.577,29.337 5.2,29.415 6.678,28.155 6.925,26.472 7.326,23.637 8.07,13.402 0.827,0.484 0.654,0.174 0.332,0 0,0"
             style="fill:#061833;fill-opacity:1;fill-rule:nonzero;stroke:none"
             id="path94"
             inkscape:connector-curvature="0" /></g><g
           id="g96"
           transform="translate(325.1562,153.4482)"><path
             d="M 0,0 C -0.15,0 -0.302,0.036 -0.444,0.111 -0.906,0.357 -1.081,0.93 -0.835,1.392 0.672,4.223 1.012,6.812 0.768,7.671 0.616,8.201 0.125,8.572 -0.401,8.532 -2.628,8.431 -6.673,5.43 -11.499,0.298 c -0.358,-0.38 -0.959,-0.398 -1.339,-0.041 -0.381,0.358 -0.399,0.958 -0.041,1.339 3.704,3.94 8.862,8.67 12.393,8.828 C 0.937,10.489 2.194,9.569 2.589,8.191 3.062,6.529 2.325,3.296 0.837,0.502 0.667,0.182 0.339,0 0,0"
             style="fill:#061833;fill-opacity:1;fill-rule:nonzero;stroke:none"
             id="path98"
             inkscape:connector-curvature="0" /></g><g
           id="g100"
           transform="translate(295.3093,153.4482)"><path
             d="m 0,0 c -0.202,0 -0.406,0.064 -0.579,0.198 -0.414,0.32 -0.49,0.914 -0.17,1.329 25.074,32.443 52.157,38.282 52.428,38.337 2.3,0.483 4.124,1.011 5.735,1.66 22.124,8.819 29.549,38.279 31.715,50.537 1.536,8.7 3.306,16.528 5.413,23.933 12.496,43.94 32.729,76.072 38.632,84.873 0.291,0.436 0.879,0.552 1.314,0.259 0.435,-0.291 0.551,-0.879 0.26,-1.314 -5.865,-8.743 -25.964,-40.664 -38.383,-84.336 -2.089,-7.342 -3.846,-15.109 -5.37,-23.745 C 88.774,79.162 81.124,48.936 58.119,39.766 56.406,39.075 54.48,38.516 52.062,38.008 51.793,37.953 25.398,32.26 0.75,0.368 0.564,0.127 0.283,0 0,0"
             style="fill:#061833;fill-opacity:1;fill-rule:nonzero;stroke:none"
             id="path102"
             inkscape:connector-curvature="0" /></g><g
           id="g104"
           transform="translate(281.485,153.4482)"><path
             d="m 0,0 c -0.22,0 -0.44,0.076 -0.62,0.232 -0.395,0.342 -0.438,0.94 -0.096,1.336 33.238,38.375 54.732,41.36 55.631,41.469 0.753,0.085 1.633,0.197 2.502,0.395 30.41,7.022 39.018,48.294 40.932,60.776 0.864,5.713 1.821,10.757 2.926,15.415 12.453,52.166 38.185,86.804 45.774,96.177 0.33,0.406 0.925,0.468 1.332,0.14 0.407,-0.329 0.469,-0.926 0.141,-1.333 -7.527,-9.294 -33.043,-43.645 -45.403,-95.422 -1.093,-4.607 -2.041,-9.599 -2.897,-15.262 C 98.262,91.141 89.414,48.876 57.84,41.585 56.872,41.365 55.885,41.239 55.134,41.155 54.929,41.13 33.478,38.153 0.717,0.327 0.529,0.111 0.265,0 0,0"
             style="fill:#061833;fill-opacity:1;fill-rule:nonzero;stroke:none"
             id="path106"
             inkscape:connector-curvature="0" /></g><g
           id="g108"
           transform="translate(265.3979,153.4482)"><path
             d="m 0,0 c -0.241,0 -0.481,0.091 -0.666,0.274 -0.372,0.367 -0.375,0.967 -0.008,1.339 l 26.74,27.065 c 16.982,17.697 43.57,21.883 43.837,21.923 28.92,5.227 37.018,52.865 37.097,53.345 13.355,69.835 46.349,113.84 56.143,125.665 0.332,0.403 0.93,0.459 1.334,0.125 0.402,-0.333 0.458,-0.931 0.125,-1.334 -9.721,-11.736 -42.471,-55.42 -55.737,-124.786 C 108.541,101.625 100.479,54.201 70.213,48.732 69.925,48.688 43.959,44.588 27.424,27.357 L 0.674,0.281 C 0.488,0.094 0.244,0 0,0"
             style="fill:#061833;fill-opacity:1;fill-rule:nonzero;stroke:none"
             id="path110"
             inkscape:connector-curvature="0" /></g><g
           id="g112"
           transform="translate(244.6763,153.4482)"><path
             d="m 0,0 c -0.162,0 -0.327,0.041 -0.477,0.13 -0.452,0.264 -0.604,0.844 -0.34,1.296 18.067,30.873 61.666,50.767 79.573,57.887 0.818,0.331 1.663,0.603 2.481,0.866 l 0.531,0.172 c 20.091,6.547 32.23,37.871 37.678,55.96 1.552,5.167 2.837,10.784 4.044,17.677 7.801,44.478 46.433,90.782 54.099,99.613 0.342,0.394 0.94,0.438 1.336,0.094 0.395,-0.343 0.437,-0.941 0.094,-1.336 -7.607,-8.765 -45.948,-54.713 -53.663,-98.698 -1.22,-6.968 -2.521,-12.655 -4.096,-17.895 C 115.705,97.321 103.265,65.363 82.355,58.55 L 81.818,58.377 C 80.996,58.112 80.221,57.862 79.461,57.554 61.732,50.504 18.588,30.834 0.819,0.468 0.642,0.168 0.326,0 0,0"
             style="fill:#061833;fill-opacity:1;fill-rule:nonzero;stroke:none"
             id="path114"
             inkscape:connector-curvature="0" /></g><g
           id="g116"
           transform="translate(226.7157,153.4482)"><path
             d="m 0,0 c -0.168,0 -0.338,0.044 -0.492,0.139 -0.447,0.272 -0.588,0.855 -0.316,1.301 23.529,38.596 70.571,58.15 72.562,58.963 6.709,2.729 12.741,5.996 17.93,9.712 40.799,29.168 47.634,87.328 47.699,87.912 3.78,26.457 39.024,64.563 49.736,75.612 0.365,0.375 0.964,0.384 1.339,0.021 0.376,-0.364 0.385,-0.964 0.021,-1.339 -7.554,-7.792 -45.425,-48.004 -49.217,-74.532 C 139.201,157.227 132.266,98.228 90.786,68.575 85.477,64.773 79.314,61.433 72.469,58.649 70.503,57.846 24.018,38.523 0.81,0.455 0.632,0.162 0.32,0 0,0"
             style="fill:#061833;fill-opacity:1;fill-rule:nonzero;stroke:none"
             id="path118"
             inkscape:connector-curvature="0" /></g><g
           id="g120"
           transform="translate(212.0034,153.4482)"><path
             d="m 0,0 c -0.16,0 -0.321,0.04 -0.47,0.125 -0.453,0.26 -0.611,0.839 -0.351,1.293 9.183,16.035 27.702,38.277 35.577,46.623 2.757,2.914 5.954,5.313 9.502,7.132 9.032,4.612 18.598,8.482 23.496,10.38 1.39,0.536 3.219,1.256 5.04,2.08 55.775,25.177 66.02,64.765 67.831,76.299 0.355,2.207 0.713,3.902 1.161,5.5 11.639,41.579 41.684,74.964 50.614,84.206 0.365,0.377 0.964,0.387 1.34,0.023 0.376,-0.364 0.386,-0.964 0.023,-1.339 -8.853,-9.161 -38.633,-42.25 -50.153,-83.401 -0.428,-1.527 -0.772,-3.157 -1.114,-5.286 C 140.648,131.867 130.214,91.475 73.574,65.905 71.71,65.063 69.85,64.33 68.437,63.785 63.574,61.902 54.076,58.059 45.121,53.487 41.766,51.767 38.741,49.496 36.133,46.74 28.313,38.452 9.926,16.373 0.823,0.477 0.648,0.171 0.329,0 0,0"
             style="fill:#061833;fill-opacity:1;fill-rule:nonzero;stroke:none"
             id="path122"
             inkscape:connector-curvature="0" /></g><g
           id="g124"
           transform="translate(197.5941,208.4976)"><path
             d="m 0,0 c -0.184,0 -0.369,0.053 -0.533,0.165 -0.432,0.295 -0.543,0.884 -0.248,1.316 17.407,25.502 60.391,45.755 60.823,45.956 21.16,7.11 36.892,20.386 37.049,20.519 30.104,23.919 34.009,56.968 34.045,57.3 0.648,11.183 6.038,20.083 8.325,23.388 1.154,1.648 2.164,3.141 3.093,4.567 l 16.708,25.242 c 0.288,0.437 0.876,0.558 1.312,0.267 0.436,-0.289 0.556,-0.876 0.267,-1.313 l -16.704,-25.235 c -0.935,-1.439 -1.958,-2.949 -3.121,-4.61 -2.193,-3.17 -7.369,-11.712 -7.993,-22.463 -0.04,-0.386 -4.007,-34.197 -34.728,-58.606 C 98.16,66.379 82.148,52.866 60.744,45.681 60.415,45.521 17.896,25.484 0.783,0.413 0.6,0.145 0.303,0 0,0"
             style="fill:#061833;fill-opacity:1;fill-rule:nonzero;stroke:none"
             id="path126"
             inkscape:connector-curvature="0" /></g><g
           id="g128"
           transform="translate(197.5941,189.2065)"><path
             d="m 0,0 c -0.159,0 -0.319,0.04 -0.467,0.124 -0.455,0.258 -0.614,0.836 -0.356,1.291 21.879,38.527 62.322,54.71 62.728,54.868 17.545,5.723 36.881,16.997 46.85,23.208 7.498,4.675 13.433,11.241 17.165,18.987 9.694,20.103 15.723,50.713 15.783,51.02 2.879,23.26 22.409,41.636 30.672,48.454 0.402,0.333 1,0.277 1.333,-0.128 0.333,-0.403 0.276,-1 -0.127,-1.333 -6.311,-5.207 -27.124,-24.006 -30.008,-47.291 -0.071,-0.373 -6.145,-31.22 -15.947,-51.545 C 123.739,89.586 117.56,82.75 109.757,77.884 99.715,71.627 80.228,60.267 62.544,54.501 62.196,54.362 22.363,38.407 0.825,0.48 0.65,0.172 0.33,0 0,0"
             style="fill:#061833;fill-opacity:1;fill-rule:nonzero;stroke:none"
             id="path130"
             inkscape:connector-curvature="0" /></g><g
           id="g132"
           transform="translate(197.5941,171.4949)"><path
             d="m 0,0 c -0.174,0 -0.351,0.048 -0.509,0.149 -0.44,0.281 -0.57,0.867 -0.288,1.308 29.445,46.12 61.266,60.475 61.584,60.615 8.299,3.48 40.271,17.717 40.593,17.861 34.061,12.676 45.083,76.325 45.19,76.967 5.974,33.34 28.7,53.418 35.523,58.778 0.411,0.323 1.007,0.252 1.33,-0.16 0.324,-0.411 0.252,-1.007 -0.16,-1.33 -6.69,-5.255 -28.972,-24.941 -34.826,-57.612 C 147.993,153.924 137.12,91.212 102.095,78.179 101.828,78.059 69.837,63.813 61.534,60.331 61.236,60.199 29.909,46.031 0.799,0.438 0.619,0.154 0.313,0 0,0"
             style="fill:#061833;fill-opacity:1;fill-rule:nonzero;stroke:none"
             id="path134"
             inkscape:connector-curvature="0" /></g><g
           id="g136"
           transform="translate(197.5941,153.6427)"><path
             d="m 0,0 c -0.18,0 -0.363,0.052 -0.524,0.159 -0.435,0.289 -0.553,0.878 -0.264,1.314 l 2.079,3.129 c 3.024,4.555 7.592,11.438 10.563,15.762 1.727,2.505 3.567,5.205 5.327,8.001 19.58,31.22 45.404,42.214 52.852,44.84 2.949,1.044 5.215,1.888 7.348,2.736 l 15.73,6.268 c 12.358,4.923 23.292,12.707 31.619,22.512 6.417,7.571 12.221,16.59 17.248,26.805 3.82,7.771 6.88,16.535 9.097,26.05 9.297,39.987 38.861,70.232 44.692,75.889 0.375,0.365 0.975,0.356 1.34,-0.02 0.364,-0.376 0.355,-0.975 -0.02,-1.34 -5.765,-5.592 -34.989,-35.487 -44.167,-74.959 -2.249,-9.655 -5.358,-18.556 -9.242,-26.456 -5.096,-10.355 -10.985,-19.504 -17.503,-27.194 C 117.648,93.454 106.457,85.486 93.812,80.45 L 78.082,74.182 C 75.925,73.324 73.638,72.471 70.664,71.418 63.361,68.844 38.039,58.058 18.785,27.358 17.005,24.531 15.152,21.809 13.415,19.29 10.453,14.98 5.89,8.105 2.87,3.554 L 0.79,0.422 C 0.607,0.148 0.307,0 0,0"
             style="fill:#061833;fill-opacity:1;fill-rule:nonzero;stroke:none"
             id="path138"
             inkscape:connector-curvature="0" /></g></g></g><text
       transform="matrix(1,0,0,-1,559.0435,216.5068)"
       style="font-variant:normal;font-weight:normal;font-stretch:normal;font-size:24px;font-family:Ubuntu;-inkscape-font-specification:Ubuntu;writing-mode:lr-tb;fill:#061833;fill-opacity:1;fill-rule:nonzero;stroke:none"
       id="text142"><tspan
         x="0"
         y="0"
         id="tspan140">E</tspan></text>
<text
       transform="matrix(1,0,0,-1,575.6274,216.5068)"
       style="font-variant:normal;font-weight:normal;font-stretch:normal;font-size:16.79999924px;font-family:Ubuntu;-inkscape-font-specification:Ubuntu;writing-mode:lr-tb;fill:#061833;fill-opacity:1;fill-rule:nonzero;stroke:none"
       id="text146"><tspan
         x="0 16.6488 31.281601 42.7896 49.324799 64.411201 78.6576 91.811996"
         y="0"
         sodipodi:role="line"
         id="tspan144">MOTIONAL</tspan></text>
<text
       transform="matrix(1,0,0,-1,686.5983,216.5068)"
       style="font-variant:normal;font-weight:normal;font-stretch:normal;font-size:24px;font-family:Ubuntu;-inkscape-font-specification:Ubuntu;writing-mode:lr-tb;fill:#061833;fill-opacity:1;fill-rule:nonzero;stroke:none"
       id="text150"><tspan
         x="0"
         y="0"
         id="tspan148">S</tspan></text>
<text
       transform="matrix(1,0,0,-1,702.2456,216.5068)"
       style="font-variant:normal;font-weight:normal;font-stretch:normal;font-size:16.79999924px;font-family:Ubuntu;-inkscape-font-specification:Ubuntu;writing-mode:lr-tb;fill:#061833;fill-opacity:1;fill-rule:nonzero;stroke:none"
       id="text154"><tspan
         x="0 6.5352001 20.5296"
         y="0"
         sodipodi:role="line"
         id="tspan152">IDE</tspan></text>
<text
       transform="matrix(1,0,0,-1,742.8081,216.5068)"
       style="font-variant:normal;font-weight:normal;font-stretch:normal;font-size:16.79999924px;font-family:Ubuntu;-inkscape-font-specification:Ubuntu;writing-mode:lr-tb;fill:#061833;fill-opacity:1;fill-rule:nonzero;stroke:none"
       id="text158"><tspan
         x="0 15.0864"
         y="0"
         sodipodi:role="line"
         id="tspan156">OF</tspan></text>
<text
       transform="matrix(1,0,0,-1,777.3552,216.5068)"
       style="font-variant:normal;font-weight:normal;font-stretch:normal;font-size:24px;font-family:Ubuntu;-inkscape-font-specification:Ubuntu;writing-mode:lr-tb;fill:#061833;fill-opacity:1;fill-rule:nonzero;stroke:none"
       id="text162"><tspan
         x="0"
         y="0"
         id="tspan160">I</tspan></text>
<text
       transform="matrix(1,0,0,-1,786.6909,216.5068)"
       style="font-variant:normal;font-weight:normal;font-stretch:normal;font-size:16.79999924px;font-family:Ubuntu;-inkscape-font-specification:Ubuntu;writing-mode:lr-tb;fill:#061833;fill-opacity:1;fill-rule:nonzero;stroke:none"
       id="text166"><tspan
         x="0 14.2464 27.283199 38.891998 49.8456 61.3536 67.888802 82.135201"
         y="0"
         sodipodi:role="line"
         id="tspan164">NVESTING</tspan></text>
<g
       id="g168"><g
         id="g170"
         clip-path="url(#clipPath174)"><g
           id="g176"
           transform="translate(447.3708,291.4968)"><path
             d="m 0,0 c 0,2.586 0.467,5.141 1.402,7.668 0.934,2.526 2.298,4.784 4.088,6.773 1.79,1.989 3.978,3.6 6.564,4.834 2.586,1.233 5.53,1.85 8.832,1.85 3.899,0 7.271,-0.856 10.115,-2.566 2.844,-1.711 4.963,-3.939 6.356,-6.684 L 31.031,7.519 c -0.557,1.194 -1.233,2.198 -2.029,3.014 -0.796,0.815 -1.651,1.462 -2.566,1.939 -0.915,0.477 -1.87,0.825 -2.864,1.044 -0.995,0.218 -1.969,0.329 -2.924,0.329 -2.069,0 -3.87,-0.418 -5.401,-1.253 C 13.715,11.756 12.442,10.672 11.428,9.339 10.413,8.006 9.647,6.494 9.13,4.804 8.612,3.112 8.354,1.432 8.354,-0.239 c 0,-1.87 0.299,-3.67 0.896,-5.4 0.596,-1.731 1.441,-3.253 2.536,-4.565 1.094,-1.314 2.406,-2.368 3.938,-3.164 1.531,-0.796 3.213,-1.193 5.043,-1.193 0.955,0 1.949,0.119 2.984,0.358 1.034,0.239 2.019,0.616 2.953,1.134 0.935,0.516 1.8,1.183 2.597,1.999 0.795,0.815 1.432,1.8 1.909,2.954 l 6.743,-3.879 c -0.676,-1.592 -1.641,-2.994 -2.894,-4.207 -1.253,-1.214 -2.666,-2.238 -4.237,-3.073 -1.572,-0.836 -3.252,-1.472 -5.042,-1.91 -1.79,-0.437 -3.542,-0.657 -5.252,-0.657 -3.024,0 -5.788,0.637 -8.295,1.91 -2.506,1.273 -4.664,2.934 -6.474,4.983 C 3.948,-12.9 2.536,-10.573 1.521,-7.967 0.507,-5.361 0,-2.706 0,0"
             style="fill:#064368;fill-opacity:1;fill-rule:nonzero;stroke:none"
             id="path178"
             inkscape:connector-curvature="0" /></g><g
           id="g180"
           transform="translate(515.2811,294.3609)"><path
             d="M 0,0 C -2.427,-0.04 -4.595,-0.507 -6.505,-1.402 -8.414,-2.297 -9.787,-3.64 -10.622,-5.43 v -18.917 h -7.997 v 31.27 h 7.34 V 0.239 c 0.557,1.074 1.214,2.038 1.969,2.894 0.756,0.855 1.572,1.601 2.447,2.238 0.875,0.636 1.761,1.124 2.656,1.462 0.895,0.338 1.76,0.507 2.596,0.507 h 0.984 C -0.409,7.34 -0.199,7.32 0,7.281 Z"
             style="fill:#064368;fill-opacity:1;fill-rule:nonzero;stroke:none"
             id="path182"
             inkscape:connector-curvature="0" /></g><g
           id="g184"
           transform="translate(581.7582,276.2199)"><path
             d="m 0,0 c 1.194,0 2.298,0.258 3.312,0.776 1.015,0.516 1.88,1.213 2.596,2.088 0.716,0.875 1.273,1.889 1.671,3.044 0.397,1.153 0.597,2.347 0.597,3.58 0,1.313 -0.22,2.537 -0.657,3.67 -0.438,1.134 -1.044,2.119 -1.82,2.954 -0.776,0.836 -1.691,1.492 -2.745,1.969 -1.054,0.478 -2.199,0.717 -3.431,0.717 -0.757,0 -1.532,-0.13 -2.327,-0.388 C -3.601,18.151 -4.336,17.783 -5.012,17.306 -5.69,16.828 -6.296,16.271 -6.833,15.635 -7.37,14.998 -7.778,14.301 -8.056,13.546 V 6.206 C -7.34,4.416 -6.246,2.933 -4.774,1.76 -3.303,0.586 -1.711,0 0,0 m 2.685,-6.803 c -2.467,0 -4.615,0.547 -6.444,1.641 -1.831,1.094 -3.263,2.575 -4.297,4.446 v -18.202 h -7.997 v 43.982 h 6.983 v -5.371 c 1.153,1.829 2.645,3.272 4.475,4.326 1.829,1.054 3.939,1.582 6.326,1.582 2.108,0 4.058,-0.428 5.848,-1.284 1.79,-0.855 3.331,-2.009 4.625,-3.461 1.292,-1.452 2.306,-3.162 3.043,-5.132 0.735,-1.969 1.104,-4.048 1.104,-6.236 0,-2.268 -0.338,-4.396 -1.014,-6.385 C 14.66,1.113 13.715,-0.617 12.502,-2.089 11.288,-3.561 9.847,-4.714 8.176,-5.55 6.505,-6.386 4.674,-6.803 2.685,-6.803"
             style="fill:#064368;fill-opacity:1;fill-rule:nonzero;stroke:none"
             id="path186"
             inkscape:connector-curvature="0" /></g><g
           id="g188"
           transform="translate(642.752,285.5887)"><path
             d="m 0,0 c 0,-1.393 0.209,-2.655 0.627,-3.789 0.418,-1.134 0.994,-2.119 1.731,-2.954 0.735,-0.836 1.601,-1.483 2.595,-1.94 0.995,-0.458 2.069,-0.686 3.223,-0.686 1.153,0 2.227,0.228 3.222,0.686 0.995,0.457 1.859,1.104 2.596,1.94 0.736,0.835 1.313,1.829 1.731,2.984 0.418,1.153 0.626,2.426 0.626,3.819 0,1.352 -0.208,2.605 -0.626,3.759 C 15.307,4.973 14.73,5.968 13.994,6.803 13.257,7.639 12.393,8.285 11.398,8.743 10.403,9.199 9.329,9.429 8.176,9.429 7.022,9.429 5.948,9.19 4.953,8.713 3.959,8.235 3.093,7.579 2.358,6.743 1.621,5.908 1.045,4.913 0.627,3.76 0.209,2.605 0,1.352 0,0 m 8.176,-16.172 c -2.547,0 -4.834,0.438 -6.863,1.312 -2.029,0.876 -3.75,2.059 -5.162,3.552 -1.412,1.491 -2.497,3.212 -3.252,5.162 -0.757,1.949 -1.134,3.998 -1.134,6.146 0,2.188 0.377,4.257 1.134,6.206 0.755,1.949 1.84,3.671 3.252,5.162 1.412,1.492 3.133,2.676 5.162,3.551 2.029,0.875 4.316,1.313 6.863,1.313 2.545,0 4.824,-0.438 6.833,-1.313 2.009,-0.875 3.719,-2.059 5.132,-3.551 1.412,-1.491 2.496,-3.213 3.252,-5.162 0.756,-1.949 1.134,-4.018 1.134,-6.206 0,-2.148 -0.378,-4.197 -1.134,-6.146 -0.756,-1.95 -1.83,-3.671 -3.222,-5.162 -1.394,-1.493 -3.103,-2.676 -5.133,-3.552 -2.029,-0.874 -4.317,-1.312 -6.862,-1.312"
             style="fill:#064368;fill-opacity:1;fill-rule:nonzero;stroke:none"
             id="path190"
             inkscape:connector-curvature="0" /></g><g
           id="g192"
           transform="translate(687.8074,291.4368)"><path
             d="m 0,0 h 10.324 c 0.755,0 1.462,0.179 2.119,0.537 0.656,0.358 1.223,0.845 1.7,1.462 0.478,0.617 0.856,1.343 1.134,2.179 0.278,0.835 0.418,1.73 0.418,2.685 0,0.994 -0.16,1.91 -0.478,2.745 -0.318,0.836 -0.745,1.561 -1.283,2.178 -0.536,0.616 -1.154,1.094 -1.849,1.432 -0.697,0.338 -1.403,0.508 -2.119,0.508 l -9.966,0 z m -8.235,-21.423 v 42.369 h 18.738 c 1.949,0 3.749,-0.408 5.401,-1.223 1.65,-0.816 3.073,-1.89 4.267,-3.223 1.193,-1.333 2.127,-2.844 2.804,-4.535 0.676,-1.691 1.015,-3.392 1.015,-5.102 0,-2.745 -0.687,-5.242 -2.059,-7.49 -1.373,-2.248 -3.233,-3.869 -5.58,-4.863 l 9.668,-15.933 h -9.25 L 8.116,-7.22 H 0 v -14.203 z"
             style="fill:#064368;fill-opacity:1;fill-rule:nonzero;stroke:none"
             id="path194"
             inkscape:connector-curvature="0" /></g><g
           id="g196"
           transform="translate(746.7664,288.274)"><path
             d="m 0,0 c -0.199,2.347 -1.064,4.227 -2.595,5.639 -1.532,1.412 -3.393,2.119 -5.58,2.119 -1.074,0 -2.079,-0.189 -3.014,-0.567 -0.935,-0.378 -1.76,-0.905 -2.477,-1.581 -0.716,-0.677 -1.303,-1.492 -1.76,-2.447 C -15.884,2.208 -16.152,1.153 -16.231,0 Z m -8.116,-18.857 c -2.506,0 -4.773,0.428 -6.803,1.283 -2.029,0.855 -3.759,2.018 -5.192,3.49 -1.432,1.472 -2.536,3.183 -3.312,5.133 -0.775,1.949 -1.164,3.998 -1.164,6.146 0,2.228 0.378,4.327 1.134,6.296 0.756,1.969 1.851,3.7 3.283,5.192 1.432,1.492 3.172,2.675 5.222,3.551 2.048,0.874 4.345,1.312 6.892,1.312 2.546,0 4.824,-0.438 6.833,-1.312 2.008,-0.876 3.72,-2.05 5.132,-3.521 C 5.32,7.241 6.394,5.53 7.131,3.581 c 0.736,-1.95 1.104,-3.979 1.104,-6.087 0,-0.518 -0.009,-1.015 -0.03,-1.492 -0.02,-0.477 -0.07,-0.875 -0.149,-1.194 h -24.168 c 0.119,-1.233 0.417,-2.327 0.895,-3.282 0.477,-0.955 1.094,-1.771 1.85,-2.447 0.755,-0.676 1.611,-1.193 2.566,-1.551 0.954,-0.358 1.949,-0.537 2.984,-0.537 1.59,0 3.092,0.388 4.505,1.164 1.412,0.775 2.377,1.799 2.895,3.073 l 6.862,-1.91 c -1.155,-2.387 -2.994,-4.347 -5.52,-5.878 -2.527,-1.532 -5.54,-2.297 -9.041,-2.297"
             style="fill:#064368;fill-opacity:1;fill-rule:nonzero;stroke:none"
             id="path198"
             inkscape:connector-curvature="0" /></g><g
           id="g200"
           transform="translate(774.0392,270.0135)"><path
             d="m 0,0 -11.517,31.27 h 8.235 L 4.654,6.505 12.651,31.27 H 20.17 L 8.653,0 Z"
             style="fill:#064368;fill-opacity:1;fill-rule:nonzero;stroke:none"
             id="path202"
             inkscape:connector-curvature="0" /></g><path
           d="m 804.95,301.283 h 7.997 v -31.27 h -7.997 z m 0,8.325 v 0 c 0,2.192 1.777,3.969 3.969,3.969 h 1.06 c 2.192,0 3.968,-1.777 3.968,-3.969 0,-2.191 -1.776,-3.968 -3.968,-3.968 h -1.06 c -2.192,0 -3.969,1.777 -3.969,3.968"
           style="fill:#064368;fill-opacity:1;fill-rule:nonzero;stroke:none"
           id="path204"
           inkscape:connector-curvature="0" /><g
           id="g206"
           transform="translate(849.3485,288.274)"><path
             d="m 0,0 c -0.199,2.347 -1.064,4.227 -2.595,5.639 -1.532,1.412 -3.393,2.119 -5.58,2.119 -1.074,0 -2.079,-0.189 -3.014,-0.567 -0.935,-0.378 -1.76,-0.905 -2.477,-1.581 -0.716,-0.677 -1.303,-1.492 -1.76,-2.447 C -15.884,2.208 -16.152,1.153 -16.231,0 Z m -8.116,-18.857 c -2.506,0 -4.773,0.428 -6.803,1.283 -2.029,0.855 -3.759,2.018 -5.192,3.49 -1.432,1.472 -2.536,3.183 -3.312,5.133 -0.775,1.949 -1.164,3.998 -1.164,6.146 0,2.228 0.378,4.327 1.134,6.296 0.756,1.969 1.851,3.7 3.283,5.192 1.432,1.492 3.172,2.675 5.222,3.551 2.048,0.874 4.345,1.312 6.892,1.312 2.546,0 4.824,-0.438 6.833,-1.312 2.008,-0.876 3.72,-2.05 5.132,-3.521 C 5.32,7.241 6.394,5.53 7.131,3.581 7.867,1.631 8.235,-0.398 8.235,-2.506 8.235,-3.024 8.226,-3.521 8.205,-3.998 8.185,-4.475 8.136,-4.873 8.056,-5.192 h -24.168 c 0.119,-1.233 0.417,-2.327 0.895,-3.282 0.477,-0.955 1.094,-1.771 1.85,-2.447 0.755,-0.676 1.611,-1.193 2.566,-1.551 0.954,-0.358 1.949,-0.537 2.984,-0.537 1.59,0 3.092,0.388 4.505,1.164 1.412,0.775 2.377,1.799 2.895,3.073 l 6.862,-1.91 c -1.155,-2.387 -2.994,-4.347 -5.52,-5.878 -2.527,-1.532 -5.54,-2.297 -9.041,-2.297"
             style="fill:#064368;fill-opacity:1;fill-rule:nonzero;stroke:none"
             id="path208"
             inkscape:connector-curvature="0" /></g><g
           id="g210"
           transform="translate(906.9952,301.2834)"><path
             d="M 0,0 H 7.579 L -5.49,-31.27 h -6.565 l -5.37,13.726 -5.311,-13.726 h -6.565 L -42.31,0 h 7.519 l 9.31,-23.751 3.819,10.145 -5.49,13.546 h 6.445 l 3.282,-9.608 3.342,9.608 h 6.444 l -5.43,-13.546 3.76,-10.145 z"
             style="fill:#064368;fill-opacity:1;fill-rule:nonzero;stroke:none"
             id="path212"
             inkscape:connector-curvature="0" /></g><g
           id="g214"
           transform="translate(921.6988,274.31)"><path
             d="M 0,0 V 0 C 0,2.373 1.924,4.297 4.297,4.297 H 5.268 C 7.641,4.297 9.565,2.373 9.565,0 v 0 c 0,-2.373 -1.924,-4.297 -4.297,-4.297 H 4.297 C 1.924,-4.297 0,-2.373 0,0"
             style="fill:#064368;fill-opacity:1;fill-rule:nonzero;stroke:none"
             id="path216"
             inkscape:connector-curvature="0" /></g><g
           id="g218"
           transform="translate(952.7664,275.265)"><path
             d="m 0,0 c 1.352,0 2.635,0.239 3.848,0.716 1.214,0.478 2.158,1.113 2.836,1.91 0.874,0.676 1.312,1.432 1.312,2.267 V 8.474 C 7.041,8.832 6.006,9.12 4.893,9.339 3.779,9.557 2.705,9.667 1.671,9.667 -0.398,9.667 -2.089,9.199 -3.402,8.265 -4.714,7.33 -5.371,6.146 -5.371,4.714 -5.371,3.361 -4.854,2.238 -3.819,1.343 -2.785,0.447 -1.513,0 0,0 m -2.268,-5.848 c -1.513,0 -2.924,0.249 -4.237,0.746 -1.313,0.496 -2.447,1.194 -3.402,2.088 -0.954,0.895 -1.7,1.939 -2.238,3.133 -0.536,1.194 -0.804,2.507 -0.804,3.939 0,1.471 0.328,2.835 0.984,4.088 0.656,1.253 1.571,2.317 2.745,3.192 1.173,0.875 2.575,1.561 4.207,2.059 1.63,0.497 3.421,0.746 5.371,0.746 1.392,0 2.754,-0.119 4.088,-0.358 1.332,-0.239 2.515,-0.577 3.55,-1.015 v 1.791 c 0,2.068 -0.587,3.659 -1.76,4.774 -1.174,1.113 -2.915,1.67 -5.222,1.67 -1.671,0 -3.302,-0.298 -4.893,-0.894 -1.591,-0.597 -3.222,-1.473 -4.894,-2.626 l -2.446,5.072 c 4.018,2.665 8.354,3.998 13.009,3.998 4.495,0 7.986,-1.104 10.473,-3.312 2.486,-2.208 3.73,-5.4 3.73,-9.577 V 3.938 c 0,-0.835 0.149,-1.432 0.447,-1.79 0.299,-0.358 0.786,-0.557 1.463,-0.597 v -6.803 c -1.353,-0.278 -2.528,-0.417 -3.521,-0.417 -1.513,0 -2.676,0.338 -3.491,1.014 -0.817,0.676 -1.323,1.572 -1.522,2.685 L 9.19,-0.239 C 7.797,-2.069 6.107,-3.461 4.118,-4.416 2.128,-5.371 0,-5.848 -2.268,-5.848"
             style="fill:#064368;fill-opacity:1;fill-rule:nonzero;stroke:none"
             id="path220"
             inkscape:connector-curvature="0" /></g><path
           d="m 982.782,301.283 h 7.997 v -31.27 h -7.997 z m -1,8.325 v 0 c 0,2.192 1.777,3.969 3.968,3.969 h 1.06 c 2.192,0 3.969,-1.777 3.969,-3.969 0,-2.191 -1.777,-3.968 -3.969,-3.968 h -1.06 c -2.191,0 -3.968,1.777 -3.968,3.968"
           style="fill:#064368;fill-opacity:1;fill-rule:nonzero;stroke:none"
           id="path222"
           inkscape:connector-curvature="0" /><g
           id="g224"
           transform="translate(626.4501,299.1183)"><path
             d="m 0,0 h -7.229 v 8.133 h -8.133 V 0 h -6.326 v -7.229 h 6.326 v -21.688 h 8.133 V -7.229 H 0 Z"
             style="fill:#064368;fill-opacity:1;fill-rule:nonzero;stroke:none"
             id="path226"
             inkscape:connector-curvature="0" /></g><g
           id="g228"
           transform="translate(537.4457,259.2054)"><path
             d="m 0,0 c -3.81,0 -8.128,1.127 -13.004,3.381 l 2.653,5.742 C -0.378,4.513 3.881,6.554 6.217,8.489 8.2,10.132 9.514,12.514 9.942,15.177 9.592,14.992 9.231,14.823 8.86,14.67 7.583,14.144 6.183,13.69 4.701,13.32 -0.327,12.07 -5.516,13.419 -9.182,16.932 l -0.147,0.142 c -2.689,2.631 -4.231,6.364 -4.231,10.242 v 12.597 h 6.325 V 27.316 c 0,-2.187 0.849,-4.272 2.33,-5.72 L -4.806,21.5 c 2.058,-1.973 5.115,-2.755 7.978,-2.041 1.183,0.294 2.286,0.651 3.279,1.06 2.306,0.95 3.85,3.19 3.933,5.708 L 10.84,40.018 17.162,39.803 16.41,16.496 C 16.247,11.418 14.002,6.724 10.251,3.618 7.339,1.206 3.941,0 0,0"
             style="fill:#064368;fill-opacity:1;fill-rule:nonzero;stroke:none"
             id="path230"
             inkscape:connector-curvature="0" /></g></g></g></g></svg>