<svg width="1604.0533" height="732.20398" xmlns="http://www.w3.org/2000/svg" stroke="null" style="vector-effect: non-scaling-stroke;">
 <metadata stroke="null" style="vector-effect: non-scaling-stroke;" id="metadata8">image/svg+xml</metadata>
 <defs stroke="null" style="vector-effect: non-scaling-stroke;">
  <clipPath stroke="null" style="vector-effect: non-scaling-stroke;" id="clipPath18" clipPathUnits="userSpaceOnUse">
   <path stroke="null" style="vector-effect: non-scaling-stroke;" id="path16" d="m-9.694934,543.914338l1203.042,0l0,-549.153l-1203.042,0l0,549.153z"/>
  </clipPath>
  <clipPath stroke="null" style="vector-effect: non-scaling-stroke;" id="clipPath174" clipPathUnits="userSpaceOnUse">
   <path stroke="null" style="vector-effect: non-scaling-stroke;" id="path172" d="m-9.694934,543.914338l1203.042,0l0,-549.153l-1203.042,0l0,549.153z"/>
  </clipPath>
 </defs>
 <g stroke="null">
  <title stroke="null">background</title>
  <rect stroke="null" fill="none" id="canvas_background" height="402" width="582" y="-1" x="-1"/>
 </g>
 <g stroke="null">
  <title stroke="null">Layer 1</title>
  <g stroke="null" transform="matrix(1.9933365956047606,0,0,-3.0396457185824164,-355.24634943383137,1179.8939729346832) " id="g10">
   <g stroke="null" id="g12">
    <g stroke="null" clip-path="url(#clipPath18)" id="g14">
     <g stroke="null" id="g20">
      <path stroke="null" fill="#061833" fill-rule="nonzero" id="path22" d="m187.89967,332.54274c-0.139,0 -0.279,0.03 -0.411,0.094c-0.471,0.227 -0.669,0.794 -0.442,1.265c3.592,7.441 7.571,20.547 7.864,21.52c3.74,22.315 27.95,22.362 28.181,22.384c8.647,-0.244 18.115,2.575 23,4.278c0.492,0.173 1.034,-0.088 1.206,-0.583c0.173,-0.494 -0.088,-1.034 -0.582,-1.206c-5.009,-1.745 -14.746,-4.64 -23.658,-4.383c-0.945,0.033 -22.849,-0.095 -26.287,-20.86c-0.007,-0.039 -0.016,-0.078 -0.027,-0.116c-0.171,-0.569 -4.212,-14.031 -7.99,-21.858c-0.164,-0.338 -0.502,-0.535 -0.854,-0.535"/>
     </g>
     <g stroke="null" id="g24">
      <path stroke="null" fill="#061833" fill-rule="nonzero" id="path26" d="m187.89967,301.180344c-0.119,0 -0.242,0.023 -0.359,0.071c-0.484,0.199 -0.716,0.752 -0.517,1.236l16.239,39.547c9.478,27.149 32.755,27.65 32.989,27.652c17.757,-0.462 35.07,9.309 39.958,12.31c0.446,0.275 1.029,0.134 1.303,-0.311c0.273,-0.446 0.134,-1.03 -0.312,-1.303c-5,-3.07 -22.704,-13.065 -40.965,-12.59c-0.869,-0.01 -22.159,-0.531 -31.202,-26.43l-16.257,-39.595c-0.151,-0.366 -0.504,-0.587 -0.877,-0.587"/>
     </g>
     <g stroke="null" id="g28">
      <path stroke="null" fill="#061833" fill-rule="nonzero" id="path30" d="m187.89967,276.16124c-0.137,0 -0.275,0.03 -0.407,0.092c-0.473,0.226 -0.673,0.791 -0.447,1.263c7.104,14.898 20.182,48.615 23.059,56.338c0.452,1.223 0.831,2.158 1.227,3.027c10.686,23.209 29.777,24.42 35.384,24.241c2.171,-0.061 4.481,-0.097 6.697,0.198c22.659,3.048 37.696,16.493 41.765,20.54c0.37,0.37 0.97,0.368 1.339,-0.003c0.369,-0.371 0.368,-0.97 -0.003,-1.339c-4.175,-4.154 -19.603,-17.949 -42.85,-21.076c-2.356,-0.314 -4.753,-0.278 -7.006,-0.213c-5.306,0.161 -23.407,-0.993 -33.604,-23.136c-0.374,-0.823 -0.737,-1.717 -1.173,-2.899c-2.884,-7.741 -15.994,-41.539 -23.126,-56.493c-0.162,-0.341 -0.501,-0.54 -0.855,-0.54"/>
     </g>
     <g stroke="null" id="g32">
      <path stroke="null" fill="#061833" fill-rule="nonzero" id="path34" d="m187.899166,252.441941c-0.156,0 -0.314,0.038 -0.46,0.119c-0.457,0.255 -0.621,0.833 -0.367,1.289c5.179,9.297 12.75,27.031 15.328,34.45c0.763,2.199 1.438,4.445 2.011,6.377c3.632,12.211 13.757,31.894 13.859,32.092c12.326,24.642 35.439,28.093 44.804,28.432c10.366,0.363 20.146,3.339 28.284,8.607c8.807,5.709 16.303,13.728 19.987,18c0.341,0.396 0.94,0.441 1.336,0.099c0.397,-0.342 0.441,-0.94 0.099,-1.336c-3.75,-4.349 -11.387,-12.516 -20.392,-18.354c-8.426,-5.453 -18.539,-8.534 -29.247,-8.909c-11.211,-0.407 -31.732,-4.506 -43.182,-27.398c-0.107,-0.206 -10.151,-19.733 -13.732,-31.772c-0.579,-1.951 -1.261,-4.222 -2.037,-6.459c-2.57,-7.397 -10.048,-25.03 -15.462,-34.751c-0.174,-0.31 -0.496,-0.486 -0.829,-0.486"/>
     </g>
     <g stroke="null" id="g36">
      <path stroke="null" fill="#061833" fill-rule="nonzero" id="path38" d="m187.901272,350.069931c-0.043,0 -0.087,0.003 -0.131,0.009c-0.518,0.071 -0.88,0.55 -0.808,1.068c2.645,19.15 11.937,27.546 17.239,30.846c0.446,0.277 1.029,0.14 1.305,-0.303c0.276,-0.444 0.14,-1.028 -0.304,-1.305c-5.021,-3.125 -13.824,-11.113 -16.364,-29.497c-0.065,-0.474 -0.471,-0.818 -0.937,-0.818"/>
     </g>
     <g stroke="null" id="g40">
      <path stroke="null" fill="#061833" fill-rule="nonzero" id="path42" d="m187.900158,232.965836c-0.242,0 -0.484,0.092 -0.669,0.277c-0.37,0.369 -0.371,0.968 -0.002,1.339c10.821,10.853 20.244,39.968 20.338,40.261c5.907,24.983 18.669,43.638 18.798,43.824c22.227,31.173 58.068,31.533 58.427,31.533c9.5,0.65 31.135,24.364 37.538,31.616c0.347,0.393 0.945,0.429 1.337,0.083c0.392,-0.346 0.429,-0.944 0.083,-1.337c-8.361,-9.47 -28.889,-31.572 -38.893,-32.254c-0.414,-0.003 -35.304,-0.384 -56.942,-30.729c-0.118,-0.172 -12.683,-18.551 -18.524,-43.243c-0.409,-1.285 -9.68,-29.918 -20.82,-41.092c-0.185,-0.185 -0.428,-0.278 -0.671,-0.278"/>
     </g>
     <g stroke="null" id="g44">
      <path stroke="null" fill="#061833" fill-rule="nonzero" id="path46" d="m187.900158,217.506043c-0.241,0 -0.482,0.091 -0.667,0.275c-0.371,0.368 -0.374,0.967 -0.006,1.339c2.157,2.176 5.112,5.302 6.942,7.834c9.956,13.796 17.18,29.16 21.471,45.662c0.046,0.191 0.079,0.322 0.119,0.452c2.869,11.096 7.245,21.417 12.996,30.633c20.769,33.251 47.05,35.383 47.313,35.4c34.056,4.493 55.063,36.26 58.928,42.582c0.273,0.446 0.855,0.587 1.302,0.314c0.447,-0.272 0.587,-0.855 0.314,-1.302c-5.539,-9.063 -26.265,-38.982 -60.357,-43.478c-0.313,-0.024 -25.669,-2.142 -45.893,-34.52c-5.649,-9.052 -9.949,-19.194 -12.781,-30.145c-0.04,-0.136 -0.063,-0.23 -0.085,-0.319c-4.373,-16.825 -11.697,-32.4 -21.791,-46.388c-1.901,-2.631 -4.928,-5.834 -7.132,-8.059c-0.186,-0.186 -0.429,-0.28 -0.673,-0.28"/>
     </g>
     <g stroke="null" id="g48">
      <path stroke="null" fill="#061833" fill-rule="nonzero" id="path50" d="m299.716565,335.874131c-5.551,0 -12.229,-1.63 -19.962,-4.88c-15.787,-6.635 -29.864,-17.609 -40.707,-31.734c-0.74,-0.965 -1.457,-1.909 -2.14,-2.815c-6.143,-8.141 -10.783,-16.974 -13.79,-26.255c-3.374,-10.409 -3.312,-16.468 -2.975,-19.152c0.089,-0.712 0.593,-1.277 1.227,-1.378c1.659,-0.259 4.112,0.566 6.912,2.333c2.212,1.395 4.059,2.477 5.814,3.403c2.925,1.545 6.861,3.571 11.699,6.022c3.089,1.563 5.928,2.73 8.678,3.567c4.528,1.379 9.192,3.489 13.86,6.271c7.391,4.404 14.15,10.25 20.089,17.376c19.996,23.992 21.336,38.096 20.985,43.046c-0.096,1.347 -0.992,2.523 -2.282,2.995c-2.186,0.801 -4.659,1.201 -7.408,1.201m-77.714,-88.156c-0.315,0 -0.626,0.022 -0.929,0.071c-1.462,0.232 -2.618,1.47 -2.811,3.013c-0.357,2.841 -0.435,9.214 3.052,19.973c3.073,9.481 7.811,18.501 14.08,26.811c0.686,0.91 1.407,1.858 2.151,2.827c11.043,14.386 25.384,25.565 41.475,32.328l0.367,-0.873l-0.367,0.873c12.017,5.051 21.692,6.299 28.756,3.711c1.989,-0.728 3.37,-2.549 3.519,-4.639c0.458,-6.434 -1.717,-20.756 -21.418,-44.394c-6.077,-7.291 -12.999,-13.277 -20.575,-17.791c-4.8,-2.86 -9.604,-5.031 -14.278,-6.455c-2.645,-0.805 -5.384,-1.932 -8.374,-3.445c-4.828,-2.446 -8.755,-4.467 -11.67,-6.007c-1.711,-0.903 -3.519,-1.961 -5.689,-3.331c-2.002,-1.264 -4.794,-2.672 -7.289,-2.672"/>
     </g>
     <g stroke="null" id="g52">
      <path stroke="null" fill="#061833" fill-rule="nonzero" id="path54" d="m284.569256,323.009842c-4.023,0 -7.645,-0.789 -7.691,-0.8c-0.013,-0.002 -0.027,-0.005 -0.04,-0.007c-8.022,-1.424 -26.805,-18.671 -26.994,-18.845c-8.643,-7.094 -13.266,-21.143 -14.478,-25.281c-0.347,-1.188 -0.568,-2.183 -0.693,-3.13c-0.367,-2.782 0.031,-4.566 1.182,-5.304c2.422,-1.553 7.942,1.252 9.864,2.464c4.515,3.148 17.442,6.6 17.99,6.746c7.658,2.277 14.732,9.871 17.417,13.029c0.706,0.832 1.41,1.656 2.147,2.462c10.728,11.739 11.089,19.421 10.745,22.178c-0.402,3.231 -2.856,5.805 -5.968,6.257c-1.143,0.166 -2.329,0.231 -3.481,0.231m-46.862,-55.71c-1.049,0 -2.038,0.213 -2.872,0.747c-1.826,1.168 -2.512,3.573 -2.04,7.148c0.138,1.045 0.377,2.13 0.753,3.414c1.251,4.27 6.032,18.776 15.053,26.178c0.746,0.69 19.314,17.736 27.887,19.278c0.461,0.1 6.459,1.369 11.835,0.588c3.953,-0.574 7.068,-3.822 7.575,-7.898c0.467,-3.748 -0.371,-11.811 -11.226,-23.689c-0.721,-0.789 -1.411,-1.596 -2.103,-2.41c-2.794,-3.288 -10.175,-11.198 -18.347,-13.627c-0.158,-0.042 -13.179,-3.519 -17.455,-6.5c-0.664,-0.42 -5.249,-3.229 -9.06,-3.229"/>
     </g>
     <g stroke="null" id="g56">
      <path stroke="null" fill="#061833" fill-rule="nonzero" id="path58" d="m276.339856,313.042923c-1.869,0 -3.754,-0.352 -5.56,-1.055c-12.318,-4.794 -21.749,-21.599 -23.515,-24.918l0,-0.001c-0.395,-0.743 -0.609,-1.457 -0.636,-2.122c-0.025,-0.619 0.097,-1.046 0.363,-1.269c0.413,-0.347 1.212,-0.27 1.46,-0.216c0.107,0.024 0.225,0.03 0.334,0.015c3.091,-0.395 14.946,4.494 19.245,6.421c0.048,0.021 0.098,0.039 0.149,0.052c3.486,0.907 9.587,6.736 16.323,15.594c0.649,0.854 0.915,1.952 0.729,3.01c-0.187,1.063 -0.788,1.968 -1.691,2.548c-0.572,0.369 -1.254,0.705 -2.028,0.998c-1.656,0.629 -3.407,0.943 -5.173,0.943m-28.401,-31.525c-0.632,0 -1.468,0.132 -2.151,0.696c-0.514,0.427 -1.115,1.26 -1.053,2.81c0.04,0.952 0.328,1.939 0.858,2.935c2.557,4.81 11.884,20.885 24.5,25.795c3.95,1.537 8.244,1.578 12.092,0.117c0.898,-0.34 1.699,-0.736 2.382,-1.175c1.332,-0.858 2.255,-2.247 2.531,-3.813c0.278,-1.577 -0.119,-3.212 -1.087,-4.486c-4.145,-5.452 -11.883,-14.786 -17.275,-16.259c-1.909,-0.854 -15.679,-6.943 -20.035,-6.557c-0.169,-0.029 -0.439,-0.063 -0.762,-0.063"/>
     </g>
     <g stroke="null" id="g60">
      <path stroke="null" fill="#061833" fill-rule="nonzero" id="path62" d="m272.574078,304.608933c-0.657,0 -1.332,-0.116 -1.991,-0.349c-7.401,-2.611 -9.601,-8.327 -9.622,-8.384c-0.858,-2.061 -0.56,-2.738 -0.448,-2.896c0.23,-0.328 0.881,-0.348 1.249,-0.33c0.864,0.041 1.77,0.352 2.622,0.897l8.841,5.652c0.972,0.621 1.719,1.421 2.161,2.314c0.365,0.739 0.461,1.334 0.282,1.767c-0.224,0.545 -0.906,0.878 -1.439,1.06c-0.521,0.18 -1.08,0.269 -1.655,0.269m-10.996,-13.858c-1.493,0 -2.245,0.611 -2.616,1.14c-0.723,1.031 -0.646,2.561 0.237,4.679c0.086,0.234 2.525,6.574 10.754,9.477c1.638,0.577 3.375,0.608 4.892,0.085c1.313,-0.451 2.18,-1.169 2.576,-2.132c0.394,-0.959 0.281,-2.078 -0.337,-3.328c-0.595,-1.201 -1.576,-2.263 -2.839,-3.07l-8.841,-5.652c-1.129,-0.722 -2.358,-1.135 -3.551,-1.192c-0.094,-0.004 -0.186,-0.007 -0.275,-0.007"/>
     </g>
     <g stroke="null" id="g64">
      <path stroke="null" fill="#061833" fill-rule="nonzero" id="path66" d="m393.743664,148.209534c-0.162,0 -0.327,0.041 -0.477,0.13c-0.452,0.264 -0.603,0.845 -0.34,1.296c1.728,2.951 4.749,5.738 5.338,6.266c0.899,0.795 1.956,1.525 3.237,2.235c0.417,0.23 0.852,0.511 1.297,0.8c7.835,5.256 13.978,14.361 15.64,23.188l0.203,1.186c0.088,0.516 0.57,0.864 1.094,0.774c0.515,-0.088 0.861,-0.579 0.773,-1.093l-0.207,-1.21c-1.752,-9.309 -8.213,-18.894 -16.459,-24.426c-0.498,-0.323 -0.973,-0.628 -1.425,-0.876c-1.157,-0.643 -2.104,-1.294 -2.893,-1.991c-1.517,-1.365 -3.733,-3.71 -4.962,-5.811c-0.177,-0.3 -0.493,-0.468 -0.819,-0.468"/>
     </g>
     <g stroke="null" id="g68">
      <path stroke="null" fill="#061833" fill-rule="nonzero" id="path70" d="m407.384472,148.209534c-0.177,0 -0.355,0.05 -0.515,0.153c-0.439,0.285 -0.563,0.871 -0.278,1.31c3.762,5.794 9.936,10.738 12.416,12.595c0.419,0.314 1.012,0.228 1.326,-0.19c0.314,-0.419 0.228,-1.013 -0.19,-1.326c-2.399,-1.796 -8.367,-6.573 -11.963,-12.111c-0.182,-0.279 -0.486,-0.431 -0.796,-0.431"/>
     </g>
     <g stroke="null" id="g72">
      <path stroke="null" fill="#061833" fill-rule="nonzero" id="path74" d="m378.144879,148.209534c-0.264,0 -0.526,0.109 -0.713,0.324c-0.345,0.393 -0.305,0.991 0.088,1.336l18.848,16.509c0.497,0.41 0.996,0.777 1.493,1.142l0.482,0.356c2.289,1.703 4.296,3.932 5.964,6.625c2.473,3.979 3.959,8.795 4.299,13.929c0.819,12.564 6.654,34.135 10.06,45.877c0.144,0.501 0.668,0.791 1.173,0.646c0.503,-0.146 0.792,-0.671 0.646,-1.175c-3.384,-11.666 -9.181,-33.086 -9.989,-45.472c-0.36,-5.443 -1.943,-10.562 -4.579,-14.804c-1.794,-2.896 -3.962,-5.3 -6.443,-7.146l-0.492,-0.362c-0.468,-0.345 -0.94,-0.69 -1.387,-1.059l-18.826,-16.491c-0.18,-0.158 -0.403,-0.235 -0.624,-0.235"/>
     </g>
     <g stroke="null" id="g76">
      <path stroke="null" fill="#061833" fill-rule="nonzero" id="path78" d="m363.18208,148.209534c-0.165,0 -0.332,0.043 -0.485,0.134c-0.449,0.268 -0.595,0.849 -0.327,1.299c5.252,8.796 21.084,17.944 21.755,18.329c0.662,0.378 1.425,0.824 2.11,1.341c17.101,12.712 18.664,42.733 18.678,43.035c1.975,25.297 9.516,41.975 13.836,49.669c0.257,0.454 0.835,0.616 1.29,0.361c0.456,-0.256 0.618,-0.833 0.362,-1.29c-4.243,-7.557 -11.653,-23.953 -13.598,-48.857c-0.055,-1.237 -1.609,-31.186 -19.433,-44.434c-0.768,-0.579 -1.592,-1.062 -2.303,-1.469c-5.538,-3.176 -17.069,-10.955 -21.07,-17.656c-0.178,-0.297 -0.493,-0.462 -0.815,-0.462"/>
     </g>
     <g stroke="null" id="g80">
      <path stroke="null" fill="#061833" fill-rule="nonzero" id="path82" d="m354.111676,148.209534c-0.066,0 -0.133,0.006 -0.2,0.021c-0.511,0.11 -0.837,0.613 -0.727,1.125c2.826,13.168 15.686,22.435 18.717,24.024c0.85,0.437 1.597,0.858 2.29,1.287c17.904,11.069 21.424,29.848 22.106,37.41c0.408,4.617 0.835,8.141 1.385,11.427c4.766,28.853 16.331,50.281 21.082,58.154c0.27,0.448 0.852,0.593 1.3,0.322c0.448,-0.271 0.592,-0.853 0.322,-1.301c-4.695,-7.779 -16.122,-28.954 -20.836,-57.486c-0.541,-3.237 -0.962,-6.716 -1.366,-11.285c-0.708,-7.846 -4.366,-27.334 -22.996,-38.851c-0.734,-0.456 -1.525,-0.901 -2.413,-1.359c-2.87,-1.503 -15.065,-10.286 -17.739,-22.739c-0.095,-0.445 -0.488,-0.749 -0.925,-0.749"/>
     </g>
     <g stroke="null" id="g84">
      <path stroke="null" fill="#061833" fill-rule="nonzero" id="path86" d="m342.885571,148.209534c-0.034,0 -0.068,0.002 -0.103,0.005c-0.52,0.056 -0.896,0.524 -0.84,1.044c2.077,19.23 19.377,28.344 19.551,28.434c0.057,0.028 0.117,0.053 0.179,0.069c18.972,5.294 22.198,17.018 22.735,20.484l0.081,0.505c0.272,1.705 0.553,3.466 0.913,5.204c2.322,11.276 7.04,29.659 10.588,43.095c4.772,18.081 12.272,35.164 22.291,50.772c0.095,0.164 0.278,0.439 0.507,0.783c0.29,0.435 0.878,0.552 1.314,0.262c0.435,-0.291 0.552,-0.879 0.261,-1.314c-0.204,-0.306 -0.367,-0.55 -0.469,-0.724c-9.931,-15.472 -17.35,-32.372 -22.072,-50.264c-3.542,-13.412 -8.251,-31.757 -10.565,-42.993c-0.351,-1.696 -0.629,-3.437 -0.898,-5.119l-0.08,-0.502c-0.579,-3.738 -4.021,-16.373 -23.996,-21.985c-1.244,-0.677 -16.562,-9.367 -18.456,-26.91c-0.053,-0.485 -0.463,-0.846 -0.941,-0.846"/>
     </g>
     <g stroke="null" id="g88">
      <path stroke="null" fill="#061833" fill-rule="nonzero" id="path90" d="m335.675274,148.209534c-0.068,0 -0.136,0.007 -0.205,0.022c-0.511,0.113 -0.834,0.619 -0.721,1.129c3.39,15.357 8.971,25.818 13.063,30.485c2.363,2.69 5.401,4.962 9.03,6.753c14.82,7.315 20.708,25.528 22.898,35.735c2.565,12.011 5.439,22.746 8.785,32.816c3.341,10.064 6.708,19.273 8.944,25.226c1.811,4.818 3.827,9.654 5.991,14.374l15.254,33.182c0.219,0.476 0.783,0.684 1.256,0.465c0.476,-0.218 0.684,-0.781 0.466,-1.257l-15.254,-33.18c-2.146,-4.68 -4.144,-9.474 -5.939,-14.25c-2.231,-5.938 -5.588,-15.122 -8.919,-25.157c-3.325,-10.004 -6.181,-20.672 -8.731,-32.616c-2.263,-10.541 -8.378,-29.369 -23.913,-37.037c-3.405,-1.681 -6.246,-3.801 -8.444,-6.303c-3.937,-4.491 -9.324,-14.637 -12.637,-29.644c-0.098,-0.442 -0.489,-0.743 -0.924,-0.743"/>
     </g>
     <g stroke="null" id="g92">
      <path stroke="null" fill="#061833" fill-rule="nonzero" id="path94" d="m325.518567,148.209534c-0.156,0 -0.316,0.039 -0.462,0.121c-0.457,0.255 -0.619,0.834 -0.363,1.289c6.952,12.4 6.254,22.111 5.875,24.791c-0.106,0.726 -0.728,1.266 -1.389,1.243c-8.19,-0.347 -27.941,-20.864 -33.8,-27.143c-0.357,-0.382 -0.956,-0.404 -1.338,-0.046c-0.383,0.356 -0.403,0.956 -0.047,1.338c7.668,8.219 26.439,27.376 35.101,27.744c1.623,0.078 3.101,-1.182 3.348,-2.865c0.401,-2.835 1.145,-13.07 -6.098,-25.988c-0.173,-0.31 -0.495,-0.484 -0.827,-0.484"/>
     </g>
     <g stroke="null" id="g96">
      <path stroke="null" fill="#061833" fill-rule="nonzero" id="path98" d="m315.461254,148.209534c-0.15,0 -0.302,0.036 -0.444,0.111c-0.462,0.246 -0.637,0.819 -0.391,1.281c1.507,2.831 1.847,5.42 1.603,6.279c-0.152,0.53 -0.643,0.901 -1.169,0.861c-2.227,-0.101 -6.272,-3.102 -11.098,-8.234c-0.358,-0.38 -0.959,-0.398 -1.339,-0.041c-0.381,0.358 -0.399,0.958 -0.041,1.339c3.704,3.94 8.862,8.67 12.393,8.828c1.423,0.065 2.68,-0.855 3.075,-2.233c0.473,-1.662 -0.264,-4.895 -1.752,-7.689c-0.17,-0.32 -0.498,-0.502 -0.837,-0.502"/>
     </g>
     <g stroke="null" id="g100">
      <path stroke="null" fill="#061833" fill-rule="nonzero" id="path102" d="m285.614361,148.209534c-0.202,0 -0.406,0.064 -0.579,0.198c-0.414,0.32 -0.49,0.914 -0.17,1.329c25.074,32.443 52.157,38.282 52.428,38.337c2.3,0.483 4.124,1.011 5.735,1.66c22.124,8.819 29.549,38.279 31.715,50.537c1.536,8.7 3.306,16.528 5.413,23.933c12.496,43.94 32.729,76.072 38.632,84.873c0.291,0.436 0.879,0.552 1.314,0.259c0.435,-0.291 0.551,-0.879 0.26,-1.314c-5.865,-8.743 -25.964,-40.664 -38.383,-84.336c-2.089,-7.342 -3.846,-15.109 -5.37,-23.745c-2.221,-12.569 -9.871,-42.795 -32.876,-51.965c-1.713,-0.691 -3.639,-1.25 -6.057,-1.758c-0.269,-0.055 -26.664,-5.748 -51.312,-37.64c-0.186,-0.241 -0.467,-0.368 -0.75,-0.368"/>
     </g>
     <g stroke="null" id="g104">
      <path stroke="null" fill="#061833" fill-rule="nonzero" id="path106" d="m271.790051,148.209534c-0.22,0 -0.44,0.076 -0.62,0.232c-0.395,0.342 -0.438,0.94 -0.096,1.336c33.238,38.375 54.732,41.36 55.631,41.469c0.753,0.085 1.633,0.197 2.502,0.395c30.41,7.022 39.018,48.294 40.932,60.776c0.864,5.713 1.821,10.757 2.926,15.415c12.453,52.166 38.185,86.804 45.774,96.177c0.33,0.406 0.925,0.468 1.332,0.14c0.407,-0.329 0.469,-0.926 0.141,-1.333c-7.527,-9.294 -33.043,-43.645 -45.403,-95.422c-1.093,-4.607 -2.041,-9.599 -2.897,-15.262c-1.96,-12.782 -10.808,-55.047 -42.382,-62.338c-0.968,-0.22 -1.955,-0.346 -2.706,-0.43c-0.205,-0.025 -21.656,-3.002 -54.417,-40.828c-0.188,-0.216 -0.452,-0.327 -0.717,-0.327"/>
     </g>
     <g stroke="null" id="g108">
      <path stroke="null" fill="#061833" fill-rule="nonzero" id="path110" d="m255.702954,148.209534c-0.241,0 -0.481,0.091 -0.666,0.274c-0.372,0.367 -0.375,0.967 -0.008,1.339l26.74,27.065c16.982,17.697 43.57,21.883 43.837,21.923c28.92,5.227 37.018,52.865 37.097,53.345c13.355,69.835 46.349,113.84 56.143,125.665c0.332,0.403 0.93,0.459 1.334,0.125c0.402,-0.333 0.458,-0.931 0.125,-1.334c-9.721,-11.736 -42.471,-55.42 -55.737,-124.786c-0.324,-1.991 -8.386,-49.415 -38.652,-54.884c-0.288,-0.044 -26.254,-4.144 -42.789,-21.375l-26.75,-27.076c-0.186,-0.187 -0.43,-0.281 -0.674,-0.281"/>
     </g>
     <g stroke="null" id="g112">
      <path stroke="null" fill="#061833" fill-rule="nonzero" id="path114" d="m234.981366,148.209534c-0.162,0 -0.327,0.041 -0.477,0.13c-0.452,0.264 -0.604,0.844 -0.34,1.296c18.067,30.873 61.666,50.767 79.573,57.887c0.818,0.331 1.663,0.603 2.481,0.866l0.531,0.172c20.091,6.547 32.23,37.871 37.678,55.96c1.552,5.167 2.837,10.784 4.044,17.677c7.801,44.478 46.433,90.782 54.099,99.613c0.342,0.394 0.94,0.438 1.336,0.094c0.395,-0.343 0.437,-0.941 0.094,-1.336c-7.607,-8.765 -45.948,-54.713 -53.663,-98.698c-1.22,-6.968 -2.521,-12.655 -4.096,-17.895c-5.555,-18.445 -17.995,-50.403 -38.905,-57.216l-0.537,-0.173c-0.822,-0.265 -1.597,-0.515 -2.357,-0.823c-17.729,-7.05 -60.873,-26.72 -78.642,-57.086c-0.177,-0.3 -0.493,-0.468 -0.819,-0.468"/>
     </g>
     <g stroke="null" id="g116">
      <path stroke="null" fill="#061833" fill-rule="nonzero" id="path118" d="m217.020764,148.209534c-0.168,0 -0.338,0.044 -0.492,0.139c-0.447,0.272 -0.588,0.855 -0.316,1.301c23.529,38.596 70.571,58.15 72.562,58.963c6.709,2.729 12.741,5.996 17.93,9.712c40.799,29.168 47.634,87.328 47.699,87.912c3.78,26.457 39.024,64.563 49.736,75.612c0.365,0.375 0.964,0.384 1.339,0.021c0.376,-0.364 0.385,-0.964 0.021,-1.339c-7.554,-7.792 -45.425,-48.004 -49.217,-74.532c-0.061,-0.562 -6.996,-59.561 -48.476,-89.214c-5.309,-3.802 -11.472,-7.142 -18.317,-9.926c-1.966,-0.803 -48.451,-20.126 -71.659,-58.194c-0.178,-0.293 -0.49,-0.455 -0.81,-0.455"/>
     </g>
     <g stroke="null" id="g120">
      <path stroke="null" fill="#061833" fill-rule="nonzero" id="path122" d="m202.308468,148.209534c-0.16,0 -0.321,0.04 -0.47,0.125c-0.453,0.26 -0.611,0.839 -0.351,1.293c9.183,16.035 27.702,38.277 35.577,46.623c2.757,2.914 5.954,5.313 9.502,7.132c9.032,4.612 18.598,8.482 23.496,10.38c1.39,0.536 3.219,1.256 5.04,2.08c55.775,25.177 66.02,64.765 67.831,76.299c0.355,2.207 0.713,3.902 1.161,5.5c11.639,41.579 41.684,74.964 50.614,84.206c0.365,0.377 0.964,0.387 1.34,0.023c0.376,-0.364 0.386,-0.964 0.023,-1.339c-8.853,-9.161 -38.633,-42.25 -50.153,-83.401c-0.428,-1.527 -0.772,-3.157 -1.114,-5.286c-1.848,-11.768 -12.282,-52.16 -68.922,-77.73c-1.864,-0.842 -3.724,-1.575 -5.137,-2.12c-4.863,-1.883 -14.361,-5.726 -23.316,-10.298c-3.355,-1.72 -6.38,-3.991 -8.988,-6.747c-7.82,-8.288 -26.207,-30.367 -35.31,-46.263c-0.175,-0.306 -0.494,-0.477 -0.823,-0.477"/>
     </g>
     <g stroke="null" id="g124">
      <path stroke="null" fill="#061833" fill-rule="nonzero" id="path126" d="m187.899166,203.258942c-0.184,0 -0.369,0.053 -0.533,0.165c-0.432,0.295 -0.543,0.884 -0.248,1.316c17.407,25.502 60.391,45.755 60.823,45.956c21.16,7.11 36.892,20.386 37.049,20.519c30.104,23.919 34.009,56.968 34.045,57.3c0.648,11.183 6.038,20.083 8.325,23.388c1.154,1.648 2.164,3.141 3.093,4.567l16.708,25.242c0.288,0.437 0.876,0.558 1.312,0.267c0.436,-0.289 0.556,-0.876 0.267,-1.313l-16.704,-25.235c-0.935,-1.439 -1.958,-2.949 -3.121,-4.61c-2.193,-3.17 -7.369,-11.712 -7.993,-22.463c-0.04,-0.386 -4.007,-34.197 -34.728,-58.606c-0.135,-0.114 -16.147,-13.627 -37.551,-20.812c-0.329,-0.16 -42.848,-20.197 -59.961,-45.268c-0.183,-0.268 -0.48,-0.413 -0.783,-0.413"/>
     </g>
     <g stroke="null" id="g128">
      <path stroke="null" fill="#061833" fill-rule="nonzero" id="path130" d="m187.899166,183.967835c-0.159,0 -0.319,0.04 -0.467,0.124c-0.455,0.258 -0.614,0.836 -0.356,1.291c21.879,38.527 62.322,54.71 62.728,54.868c17.545,5.723 36.881,16.997 46.85,23.208c7.498,4.675 13.433,11.241 17.165,18.987c9.694,20.103 15.723,50.713 15.783,51.02c2.879,23.26 22.409,41.636 30.672,48.454c0.402,0.333 1,0.277 1.333,-0.128c0.333,-0.403 0.276,-1 -0.127,-1.333c-6.311,-5.207 -27.124,-24.006 -30.008,-47.291c-0.071,-0.373 -6.145,-31.22 -15.947,-51.545c-3.887,-8.069 -10.066,-14.905 -17.869,-19.771c-10.042,-6.257 -29.529,-17.617 -47.213,-23.383c-0.348,-0.139 -40.181,-16.094 -61.719,-54.021c-0.175,-0.308 -0.495,-0.48 -0.825,-0.48"/>
     </g>
     <g stroke="null" id="g132">
      <path stroke="null" fill="#061833" fill-rule="nonzero" id="path134" d="m187.899166,166.256241c-0.174,0 -0.351,0.048 -0.509,0.149c-0.44,0.281 -0.57,0.867 -0.288,1.308c29.445,46.12 61.266,60.475 61.584,60.615c8.299,3.48 40.271,17.717 40.593,17.861c34.061,12.676 45.083,76.325 45.19,76.967c5.974,33.34 28.7,53.418 35.523,58.778c0.411,0.323 1.007,0.252 1.33,-0.16c0.324,-0.411 0.252,-1.007 -0.16,-1.33c-6.69,-5.255 -28.972,-24.941 -34.826,-57.612c-0.444,-2.652 -11.317,-65.364 -46.342,-78.397c-0.267,-0.12 -32.258,-14.366 -40.561,-17.848c-0.298,-0.132 -31.625,-14.3 -60.735,-59.893c-0.18,-0.284 -0.486,-0.438 -0.799,-0.438"/>
     </g>
     <g stroke="null" id="g136">
      <path stroke="null" fill="#061833" fill-rule="nonzero" id="path138" d="m187.899166,148.404038c-0.18,0 -0.363,0.052 -0.524,0.159c-0.435,0.289 -0.553,0.878 -0.264,1.314l2.079,3.129c3.024,4.555 7.592,11.438 10.563,15.762c1.727,2.505 3.567,5.205 5.327,8.001c19.58,31.22 45.404,42.214 52.852,44.84c2.949,1.044 5.215,1.888 7.348,2.736l15.73,6.268c12.358,4.923 23.292,12.707 31.619,22.512c6.417,7.571 12.221,16.59 17.248,26.805c3.82,7.771 6.88,16.535 9.097,26.05c9.297,39.987 38.861,70.232 44.692,75.889c0.375,0.365 0.975,0.356 1.34,-0.02c0.364,-0.376 0.355,-0.975 -0.02,-1.34c-5.765,-5.592 -34.989,-35.487 -44.167,-74.959c-2.249,-9.655 -5.358,-18.556 -9.242,-26.456c-5.096,-10.355 -10.985,-19.504 -17.503,-27.194c-8.527,-10.042 -19.718,-18.01 -32.363,-23.046l-15.73,-6.268c-2.157,-0.858 -4.444,-1.711 -7.418,-2.764c-7.303,-2.574 -32.625,-13.36 -51.879,-44.06c-1.78,-2.827 -3.633,-5.549 -5.37,-8.068c-2.962,-4.31 -7.525,-11.185 -10.545,-15.736l-2.08,-3.132c-0.183,-0.274 -0.483,-0.422 -0.79,-0.422"/>
     </g>
    </g>
   </g>
   <text stroke="null" x="-9.694934" y="5.238662" font-weight="normal" font-size="24px" font-family="Ubuntu" fill="#061833" fill-rule="nonzero" id="text142" transform="matrix(1,0,0,-1,559.0435,216.5068) ">
    <tspan stroke="null" id="tspan140" y="0" x="0">E</tspan>
   </text>
   <text stroke="null" x="-9.694934" y="5.238662" font-weight="normal" font-size="16.799999px" font-family="Ubuntu" fill="#061833" fill-rule="nonzero" id="text146" transform="matrix(1,0,0,-1,575.6274,216.5068) ">
    <tspan stroke="null" id="tspan144" y="0" x="0 16.6488 31.281601 42.7896 49.324799 64.411201 78.6576 91.811996">MOTIONAL</tspan>
   </text>
   <text stroke="null" x="-9.694934" y="5.238662" font-weight="normal" font-size="24px" font-family="Ubuntu" fill="#061833" fill-rule="nonzero" id="text150" transform="matrix(1,0,0,-1,686.5983,216.5068) ">
    <tspan stroke="null" id="tspan148" y="0" x="0">S</tspan>
   </text>
   <text stroke="null" x="-9.694934" y="5.238662" font-weight="normal" font-size="16.799999px" font-family="Ubuntu" fill="#061833" fill-rule="nonzero" id="text154" transform="matrix(1,0,0,-1,702.2456,216.5068) ">
    <tspan stroke="null" id="tspan152" y="0" x="0 6.5352001 20.5296">IDE</tspan>
   </text>
   <text stroke="null" x="-9.694934" y="5.238662" font-weight="normal" font-size="16.799999px" font-family="Ubuntu" fill="#061833" fill-rule="nonzero" id="text158" transform="matrix(1,0,0,-1,742.8081,216.5068) ">
    <tspan stroke="null" id="tspan156" y="0" x="0 15.0864">OF</tspan>
   </text>
   <text stroke="null" x="-9.694934" y="5.238662" font-weight="normal" font-size="24px" font-family="Ubuntu" fill="#061833" fill-rule="nonzero" id="text162" transform="matrix(1,0,0,-1,777.3552,216.5068) ">
    <tspan stroke="null" id="tspan160" y="0" x="0">I</tspan>
   </text>
   <text stroke="null" x="-9.694934" y="5.238662" font-weight="normal" font-size="16.799999px" font-family="Ubuntu" fill="#061833" fill-rule="nonzero" id="text166" transform="matrix(1,0,0,-1,786.6909,216.5068) ">
    <tspan stroke="null" id="tspan164" y="0" x="0 14.2464 27.283199 38.891998 49.8456 61.3536 67.888802 82.135201">NVESTING</tspan>
   </text>
   <g stroke="null" id="g168">
    <g stroke="null" clip-path="url(#clipPath174)" id="g170">
     <g stroke="null" id="g176">
      <path stroke="null" fill="#064368" fill-rule="nonzero" id="path178" d="m437.675854,286.258133c0,2.586 0.467,5.141 1.402,7.668c0.934,2.526 2.298,4.784 4.088,6.773c1.79,1.989 3.978,3.6 6.564,4.834c2.586,1.233 5.53,1.85 8.832,1.85c3.899,0 7.271,-0.856 10.115,-2.566c2.844,-1.711 4.963,-3.939 6.356,-6.684l-6.326,-4.356c-0.557,1.194 -1.233,2.198 -2.029,3.014c-0.796,0.815 -1.651,1.462 -2.566,1.939c-0.915,0.477 -1.87,0.825 -2.864,1.044c-0.995,0.218 -1.969,0.329 -2.924,0.329c-2.069,0 -3.87,-0.418 -5.401,-1.253c-1.532,-0.836 -2.805,-1.92 -3.819,-3.253c-1.015,-1.333 -1.781,-2.845 -2.298,-4.535c-0.518,-1.692 -0.776,-3.372 -0.776,-5.043c0,-1.87 0.299,-3.67 0.896,-5.4c0.596,-1.731 1.441,-3.253 2.536,-4.565c1.094,-1.314 2.406,-2.368 3.938,-3.164c1.531,-0.796 3.213,-1.193 5.043,-1.193c0.955,0 1.949,0.119 2.984,0.358c1.034,0.239 2.019,0.616 2.953,1.134c0.935,0.516 1.8,1.183 2.597,1.999c0.795,0.815 1.432,1.8 1.909,2.954l6.743,-3.879c-0.676,-1.592 -1.641,-2.994 -2.894,-4.207c-1.253,-1.214 -2.666,-2.238 -4.237,-3.073c-1.572,-0.836 -3.252,-1.472 -5.042,-1.91c-1.79,-0.437 -3.542,-0.657 -5.252,-0.657c-3.024,0 -5.788,0.637 -8.295,1.91c-2.506,1.273 -4.664,2.934 -6.474,4.983c-1.811,2.049 -3.223,4.376 -4.238,6.982c-1.014,2.606 -1.521,5.261 -1.521,7.967"/>
     </g>
     <g stroke="null" id="g180">
      <path stroke="null" fill="#064368" fill-rule="nonzero" id="path182" d="m505.586193,289.122239c-2.427,-0.04 -4.595,-0.507 -6.505,-1.402c-1.909,-0.895 -3.282,-2.238 -4.117,-4.028l0,-18.917l-7.997,0l0,31.27l7.34,0l0,-6.684c0.557,1.074 1.214,2.038 1.969,2.894c0.756,0.855 1.572,1.601 2.447,2.238c0.875,0.636 1.761,1.124 2.656,1.462c0.895,0.338 1.76,0.507 2.596,0.507l0.984,0c0.218,0 0.428,-0.02 0.627,-0.059l0,-7.281z"/>
     </g>
     <g stroke="null" id="g184">
      <path stroke="null" fill="#064368" fill-rule="nonzero" id="path186" d="m572.063244,270.981247c1.194,0 2.298,0.258 3.312,0.776c1.015,0.516 1.88,1.213 2.596,2.088c0.716,0.875 1.273,1.889 1.671,3.044c0.397,1.153 0.597,2.347 0.597,3.58c0,1.313 -0.22,2.537 -0.657,3.67c-0.438,1.134 -1.044,2.119 -1.82,2.954c-0.776,0.836 -1.691,1.492 -2.745,1.969c-1.054,0.478 -2.199,0.717 -3.431,0.717c-0.757,0 -1.532,-0.13 -2.327,-0.388c-0.797,-0.259 -1.532,-0.627 -2.208,-1.104c-0.678,-0.478 -1.284,-1.035 -1.821,-1.671c-0.537,-0.637 -0.945,-1.334 -1.223,-2.089l0,-7.34c0.716,-1.79 1.81,-3.273 3.282,-4.446c1.471,-1.174 3.063,-1.76 4.774,-1.76m2.685,-6.803c-2.467,0 -4.615,0.547 -6.444,1.641c-1.831,1.094 -3.263,2.575 -4.297,4.446l0,-18.202l-7.997,0l0,43.982l6.983,0l0,-5.371c1.153,1.829 2.645,3.272 4.475,4.326c1.829,1.054 3.939,1.582 6.326,1.582c2.108,0 4.058,-0.428 5.848,-1.284c1.79,-0.855 3.331,-2.009 4.625,-3.461c1.292,-1.452 2.306,-3.162 3.043,-5.132c0.735,-1.969 1.104,-4.048 1.104,-6.236c0,-2.268 -0.338,-4.396 -1.014,-6.385c-0.677,-1.99 -1.622,-3.72 -2.835,-5.192c-1.214,-1.472 -2.655,-2.625 -4.326,-3.461c-1.671,-0.836 -3.502,-1.253 -5.491,-1.253"/>
     </g>
     <g stroke="null" id="g188">
      <path stroke="null" fill="#064368" fill-rule="nonzero" id="path190" d="m633.05708,280.350052c0,-1.393 0.209,-2.655 0.627,-3.789c0.418,-1.134 0.994,-2.119 1.731,-2.954c0.735,-0.836 1.601,-1.483 2.595,-1.94c0.995,-0.458 2.069,-0.686 3.223,-0.686c1.153,0 2.227,0.228 3.222,0.686c0.995,0.457 1.859,1.104 2.596,1.94c0.736,0.835 1.313,1.829 1.731,2.984c0.418,1.153 0.626,2.426 0.626,3.819c0,1.352 -0.208,2.605 -0.626,3.759c-0.418,1.154 -0.995,2.149 -1.731,2.984c-0.737,0.836 -1.601,1.482 -2.596,1.94c-0.995,0.456 -2.069,0.686 -3.222,0.686c-1.154,0 -2.228,-0.239 -3.223,-0.716c-0.994,-0.478 -1.86,-1.134 -2.595,-1.97c-0.737,-0.835 -1.313,-1.83 -1.731,-2.983c-0.418,-1.155 -0.627,-2.408 -0.627,-3.76m8.176,-16.172c-2.547,0 -4.834,0.438 -6.863,1.312c-2.029,0.876 -3.75,2.059 -5.162,3.552c-1.412,1.491 -2.497,3.212 -3.252,5.162c-0.757,1.949 -1.134,3.998 -1.134,6.146c0,2.188 0.377,4.257 1.134,6.206c0.755,1.949 1.84,3.671 3.252,5.162c1.412,1.492 3.133,2.676 5.162,3.551c2.029,0.875 4.316,1.313 6.863,1.313c2.545,0 4.824,-0.438 6.833,-1.313c2.009,-0.875 3.719,-2.059 5.132,-3.551c1.412,-1.491 2.496,-3.213 3.252,-5.162c0.756,-1.949 1.134,-4.018 1.134,-6.206c0,-2.148 -0.378,-4.197 -1.134,-6.146c-0.756,-1.95 -1.83,-3.671 -3.222,-5.162c-1.394,-1.493 -3.103,-2.676 -5.133,-3.552c-2.029,-0.874 -4.317,-1.312 -6.862,-1.312"/>
     </g>
     <g stroke="null" id="g192">
      <path stroke="null" fill="#064368" fill-rule="nonzero" id="path194" d="m678.112439,286.198136l10.324,0c0.755,0 1.462,0.179 2.119,0.537c0.656,0.358 1.223,0.845 1.7,1.462c0.478,0.617 0.856,1.343 1.134,2.179c0.278,0.835 0.418,1.73 0.418,2.685c0,0.994 -0.16,1.91 -0.478,2.745c-0.318,0.836 -0.745,1.561 -1.283,2.178c-0.536,0.616 -1.154,1.094 -1.849,1.432c-0.697,0.338 -1.403,0.508 -2.119,0.508l-9.966,0l0,-13.726zm-8.235,-21.423l0,42.369l18.738,0c1.949,0 3.749,-0.408 5.401,-1.223c1.65,-0.816 3.073,-1.89 4.267,-3.223c1.193,-1.333 2.127,-2.844 2.804,-4.535c0.676,-1.691 1.015,-3.392 1.015,-5.102c0,-2.745 -0.687,-5.242 -2.059,-7.49c-1.373,-2.248 -3.233,-3.869 -5.58,-4.863l9.668,-15.933l-9.25,0l-8.653,14.203l-8.116,0l0,-14.203l-8.235,0z"/>
     </g>
     <g stroke="null" id="g196">
      <path stroke="null" fill="#064368" fill-rule="nonzero" id="path198" d="m737.071484,283.035325c-0.199,2.347 -1.064,4.227 -2.595,5.639c-1.532,1.412 -3.393,2.119 -5.58,2.119c-1.074,0 -2.079,-0.189 -3.014,-0.567c-0.935,-0.378 -1.76,-0.905 -2.477,-1.581c-0.716,-0.677 -1.303,-1.492 -1.76,-2.447c-0.458,-0.955 -0.726,-2.01 -0.805,-3.163l16.231,0zm-8.116,-18.857c-2.506,0 -4.773,0.428 -6.803,1.283c-2.029,0.855 -3.759,2.018 -5.192,3.49c-1.432,1.472 -2.536,3.183 -3.312,5.133c-0.775,1.949 -1.164,3.998 -1.164,6.146c0,2.228 0.378,4.327 1.134,6.296c0.756,1.969 1.851,3.7 3.283,5.192c1.432,1.492 3.172,2.675 5.222,3.551c2.048,0.874 4.345,1.312 6.892,1.312c2.546,0 4.824,-0.438 6.833,-1.312c2.008,-0.876 3.72,-2.05 5.132,-3.521c1.411,-1.472 2.485,-3.183 3.222,-5.132c0.736,-1.95 1.104,-3.979 1.104,-6.087c0,-0.518 -0.009,-1.015 -0.03,-1.492c-0.02,-0.477 -0.07,-0.875 -0.149,-1.194l-24.168,0c0.119,-1.233 0.417,-2.327 0.895,-3.282c0.477,-0.955 1.094,-1.771 1.85,-2.447c0.755,-0.676 1.611,-1.193 2.566,-1.551c0.954,-0.358 1.949,-0.537 2.984,-0.537c1.59,0 3.092,0.388 4.505,1.164c1.412,0.775 2.377,1.799 2.895,3.073l6.862,-1.91c-1.155,-2.387 -2.994,-4.347 -5.52,-5.878c-2.527,-1.532 -5.54,-2.297 -9.041,-2.297"/>
     </g>
     <g stroke="null" id="g200">
      <path stroke="null" fill="#064368" fill-rule="nonzero" id="path202" d="m764.34425,264.774826l-11.517,31.27l8.235,0l7.936,-24.765l7.997,24.765l7.519,0l-11.517,-31.27l-8.653,0z"/>
     </g>
     <path stroke="null" fill="#064368" fill-rule="nonzero" id="path204" d="m795.255066,296.044338l7.997,0l0,-31.27l-7.997,0l0,31.27zm0,8.325l0,0c0,2.192 1.777,3.969 3.969,3.969l1.06,0c2.192,0 3.968,-1.777 3.968,-3.969c0,-2.191 -1.776,-3.968 -3.968,-3.968l-1.06,0c-2.192,0 -3.969,1.777 -3.969,3.968"/>
     <g stroke="null" id="g206">
      <path stroke="null" fill="#064368" fill-rule="nonzero" id="path208" d="m839.653576,283.035325c-0.199,2.347 -1.064,4.227 -2.595,5.639c-1.532,1.412 -3.393,2.119 -5.58,2.119c-1.074,0 -2.079,-0.189 -3.014,-0.567c-0.935,-0.378 -1.76,-0.905 -2.477,-1.581c-0.716,-0.677 -1.303,-1.492 -1.76,-2.447c-0.458,-0.955 -0.726,-2.01 -0.805,-3.163l16.231,0zm-8.116,-18.857c-2.506,0 -4.773,0.428 -6.803,1.283c-2.029,0.855 -3.759,2.018 -5.192,3.49c-1.432,1.472 -2.536,3.183 -3.312,5.133c-0.775,1.949 -1.164,3.998 -1.164,6.146c0,2.228 0.378,4.327 1.134,6.296c0.756,1.969 1.851,3.7 3.283,5.192c1.432,1.492 3.172,2.675 5.222,3.551c2.048,0.874 4.345,1.312 6.892,1.312c2.546,0 4.824,-0.438 6.833,-1.312c2.008,-0.876 3.72,-2.05 5.132,-3.521c1.411,-1.472 2.485,-3.183 3.222,-5.132c0.736,-1.95 1.104,-3.979 1.104,-6.087c0,-0.518 -0.009,-1.015 -0.03,-1.492c-0.02,-0.477 -0.069,-0.875 -0.149,-1.194l-24.168,0c0.119,-1.233 0.417,-2.327 0.895,-3.282c0.477,-0.955 1.094,-1.771 1.85,-2.447c0.755,-0.676 1.611,-1.193 2.566,-1.551c0.954,-0.358 1.949,-0.537 2.984,-0.537c1.59,0 3.092,0.388 4.505,1.164c1.412,0.775 2.377,1.799 2.895,3.073l6.862,-1.91c-1.155,-2.387 -2.994,-4.347 -5.52,-5.878c-2.527,-1.532 -5.54,-2.297 -9.041,-2.297"/>
     </g>
     <g stroke="null" id="g210">
      <path stroke="null" fill="#064368" fill-rule="nonzero" id="path212" d="m897.300244,296.044724l7.579,0l-13.069,-31.27l-6.565,0l-5.37,13.726l-5.311,-13.726l-6.565,0l-13.009,31.27l7.519,0l9.31,-23.751l3.819,10.145l-5.49,13.546l6.445,0l3.282,-9.608l3.342,9.608l6.444,0l-5.43,-13.546l3.76,-10.145l9.309,23.751z"/>
     </g>
     <g stroke="null" id="g214">
      <path stroke="null" fill="#064368" fill-rule="nonzero" id="path216" d="m912.003857,269.071335l0,0c0,2.373 1.924,4.297 4.297,4.297l0.971,0c2.373,0 4.297,-1.924 4.297,-4.297l0,0c0,-2.373 -1.924,-4.297 -4.297,-4.297l-0.971,0c-2.373,0 -4.297,1.924 -4.297,4.297"/>
     </g>
     <g stroke="null" id="g218">
      <path stroke="null" fill="#064368" fill-rule="nonzero" id="path220" d="m943.071484,270.026352c1.352,0 2.635,0.239 3.848,0.716c1.214,0.478 2.158,1.113 2.836,1.91c0.874,0.676 1.312,1.432 1.312,2.267l0,3.581c-0.955,0.358 -1.99,0.646 -3.103,0.865c-1.114,0.218 -2.188,0.328 -3.222,0.328c-2.069,0 -3.76,-0.468 -5.073,-1.402c-1.312,-0.935 -1.969,-2.119 -1.969,-3.551c0,-1.353 0.517,-2.476 1.552,-3.371c1.034,-0.896 2.306,-1.343 3.819,-1.343m-2.268,-5.848c-1.513,0 -2.924,0.249 -4.237,0.746c-1.313,0.496 -2.447,1.194 -3.402,2.088c-0.954,0.895 -1.7,1.939 -2.238,3.133c-0.536,1.194 -0.804,2.507 -0.804,3.939c0,1.471 0.328,2.835 0.984,4.088c0.656,1.253 1.571,2.317 2.745,3.192c1.173,0.875 2.575,1.561 4.207,2.059c1.63,0.497 3.421,0.746 5.371,0.746c1.392,0 2.754,-0.119 4.088,-0.358c1.332,-0.239 2.515,-0.577 3.55,-1.015l0,1.791c0,2.068 -0.587,3.659 -1.76,4.774c-1.174,1.113 -2.915,1.67 -5.222,1.67c-1.671,0 -3.302,-0.298 -4.893,-0.894c-1.591,-0.597 -3.222,-1.473 -4.894,-2.626l-2.446,5.072c4.018,2.665 8.354,3.998 13.009,3.998c4.495,0 7.986,-1.104 10.473,-3.312c2.486,-2.208 3.73,-5.4 3.73,-9.577l0,-9.728c0,-0.835 0.149,-1.432 0.447,-1.79c0.299,-0.358 0.786,-0.557 1.463,-0.597l0,-6.803c-1.353,-0.278 -2.528,-0.417 -3.521,-0.417c-1.513,0 -2.676,0.338 -3.491,1.014c-0.817,0.676 -1.323,1.572 -1.522,2.685l-0.179,1.731c-1.393,-1.83 -3.083,-3.222 -5.072,-4.177c-1.99,-0.955 -4.118,-1.432 -6.386,-1.432"/>
     </g>
     <path stroke="null" fill="#064368" fill-rule="nonzero" id="path222" d="m973.087066,296.044338l7.997,0l0,-31.27l-7.997,0l0,31.27zm-1,8.325l0,0c0,2.192 1.777,3.969 3.968,3.969l1.06,0c2.192,0 3.969,-1.777 3.969,-3.969c0,-2.191 -1.777,-3.968 -3.969,-3.968l-1.06,0c-2.191,0 -3.968,1.777 -3.968,3.968"/>
     <g stroke="null" id="g224">
      <path stroke="null" fill="#064368" fill-rule="nonzero" id="path226" d="m616.755139,293.879624l-7.229,0l0,8.133l-8.133,0l0,-8.133l-6.326,0l0,-7.229l6.326,0l0,-21.688l8.133,0l0,21.688l7.229,0l0,7.229z"/>
     </g>
     <g stroke="null" id="g228">
      <path stroke="null" fill="#064368" fill-rule="nonzero" id="path230" d="m527.750744,253.966752c-3.81,0 -8.128,1.127 -13.004,3.381l2.653,5.742c9.973,-4.61 14.232,-2.569 16.568,-0.634c1.983,1.643 3.297,4.025 3.725,6.688c-0.35,-0.185 -0.711,-0.354 -1.082,-0.507c-1.277,-0.526 -2.677,-0.98 -4.159,-1.35c-5.028,-1.25 -10.217,0.099 -13.883,3.612l-0.147,0.142c-2.689,2.631 -4.231,6.364 -4.231,10.242l0,12.597l6.325,0l0,-12.597c0,-2.187 0.849,-4.272 2.33,-5.72l0.099,-0.096c2.058,-1.973 5.115,-2.755 7.978,-2.041c1.183,0.294 2.286,0.651 3.279,1.06c2.306,0.95 3.85,3.19 3.933,5.708l0.456,13.791l6.322,-0.215l-0.752,-23.307c-0.163,-5.078 -2.408,-9.772 -6.159,-12.878c-2.912,-2.412 -6.31,-3.618 -10.251,-3.618"/>
     </g>
    </g>
   </g>
  </g>
 </g>
</svg>